<svg xmlns="http://www.w3.org/2000/svg" width="309.63" height="333.989" viewBox="0 0 309.63 333.989">
  <g id="Group_284" data-name="Group 284" transform="translate(-805.463 -54.401)">
    <g id="blob_textures" data-name="blob textures" transform="translate(756.989 14.305)" opacity="0.084">
      <path id="Path_2387" data-name="Path 2387" d="M-118-6.068c6.671,20.379,19.237,35.261,30.009,53.219,9.414,15.694,17.079,32.189,35.75,39.217A55.135,55.135,0,0,0-29.6,89.317a78.762,78.762,0,0,0,45.7-18.17C47.362,44.841,52.474.809,79.5-28.609c24.983-27.191,56.715-53.855,51.29-94.873-.672-5.077-2.049-10.261-5.366-14.191-11.275-13.353-53.448-10.554-69.77-12.2-27.666-2.784-55.857-4.933-83.324.713-30.257,6.219-70.966,30.865-87.807,57.257C-130.1-68.985-125.919-30.272-118-6.068Z" transform="translate(198.436 284.642)" fill="#faf1e7"/>
      <g id="Group_256" data-name="Group 256" transform="translate(161.762 336.161) rotate(-110)" opacity="0.8">
        <path id="Path_2388" data-name="Path 2388" d="M4.008,4.214a2.41,2.41,0,1,1,.206-3.4A2.411,2.411,0,0,1,4.008,4.214Z" transform="translate(26.131 177.813)" fill="#f2e2d0"/>
        <path id="Path_2389" data-name="Path 2389" d="M.825.617A2.45,2.45,0,1,1,.617,4.075,2.45,2.45,0,0,1,.825.617Z" transform="translate(62.206 192.23)" fill="#f2e2d0"/>
        <path id="Path_2390" data-name="Path 2390" d="M0,2.439A2.345,2.345,0,1,1,2.439,4.688,2.345,2.345,0,0,1,0,2.439Z" transform="translate(26.746 67.947)" fill="#f2e2d0"/>
        <path id="Path_2391" data-name="Path 2391" d="M3.172.261a2.146,2.146,0,1,1-2.91.859A2.145,2.145,0,0,1,3.172.261Z" transform="translate(93.607 187.159)" fill="#f2e2d0"/>
        <path id="Path_2392" data-name="Path 2392" d="M4.281.561a2.651,2.651,0,1,1-3.72.46A2.65,2.65,0,0,1,4.281.561Z" transform="translate(73.932 30.906)" fill="#f2e2d0"/>
        <path id="Path_2393" data-name="Path 2393" d="M1.184,4.241a2.256,2.256,0,1,1,3.058-.913A2.256,2.256,0,0,1,1.184,4.241Z" transform="translate(100.698 159.666)" fill="#f2e2d0"/>
        <path id="Path_2394" data-name="Path 2394" d="M1.564.046A1.987,1.987,0,1,1,.046,2.411,1.987,1.987,0,0,1,1.564.046Z" transform="translate(25.358 1.149)" fill="#f2e2d0"/>
        <path id="Path_2395" data-name="Path 2395" d="M1.886.154A2.8,2.8,0,1,1,.154,3.715,2.8,2.8,0,0,1,1.886.154Z" transform="translate(47.259 46.617)" fill="#f2e2d0"/>
        <path id="Path_2396" data-name="Path 2396" d="M2.523.049A2.076,2.076,0,1,1,.049,1.63,2.076,2.076,0,0,1,2.523.049Z" transform="translate(32.67 97.466)" fill="#f2e2d0"/>
        <path id="Path_2397" data-name="Path 2397" d="M1.562.075a2.117,2.117,0,1,1-1.487,2.6A2.117,2.117,0,0,1,1.562.075Z" transform="translate(75.258 220.796)" fill="#f2e2d0"/>
        <path id="Path_2398" data-name="Path 2398" d="M4.116,1.19A2.176,2.176,0,1,1,1.191.237,2.176,2.176,0,0,1,4.116,1.19Z" transform="translate(25.523 11.201)" fill="#f2e2d0"/>
        <path id="Path_2399" data-name="Path 2399" d="M.016,2.278A2.559,2.559,0,1,1,2.278,5.1,2.558,2.558,0,0,1,.016,2.278Z" transform="translate(110.708 109.514)" fill="#f2e2d0"/>
        <path id="Path_2400" data-name="Path 2400" d="M.014,2.046A2.3,2.3,0,1,1,2.046,4.578,2.3,2.3,0,0,1,.014,2.046Z" transform="translate(76.584 19.881)" fill="#f2e2d0"/>
        <path id="Path_2401" data-name="Path 2401" d="M4.289,2.291A2.147,2.147,0,1,1,2.291,0,2.147,2.147,0,0,1,4.289,2.291Z" transform="translate(93.871 221.559)" fill="#f2e2d0"/>
        <path id="Path_2402" data-name="Path 2402" d="M.54,3.677a2.225,2.225,0,1,1,3.138.233A2.225,2.225,0,0,1,.54,3.677Z" transform="translate(77.277 40.565)" fill="#f2e2d0"/>
        <path id="Path_2403" data-name="Path 2403" d="M4.05,1.76A2.034,2.034,0,1,1,1.761.019,2.034,2.034,0,0,1,4.05,1.76Z" transform="translate(12.701 64.165)" fill="#f2e2d0"/>
        <path id="Path_2404" data-name="Path 2404" d="M.36,1.373A2.726,2.726,0,1,1,1.373,5.092,2.726,2.726,0,0,1,.36,1.373Z" transform="translate(37.291 160.471)" fill="#f2e2d0"/>
        <path id="Path_2405" data-name="Path 2405" d="M4.011,2.074A2.006,2.006,0,1,1,2.074,0,2.006,2.006,0,0,1,4.011,2.074Z" transform="translate(51.286 193.501)" fill="#f2e2d0"/>
        <ellipse id="Ellipse_103" data-name="Ellipse 103" cx="2.273" cy="2.273" rx="2.273" ry="2.273" transform="matrix(0.304, -0.953, 0.953, 0.304, 108.28, 94.678)" fill="#f2e2d0"/>
        <path id="Path_2406" data-name="Path 2406" d="M1.945,3.928A1.964,1.964,0,1,1,3.929,1.984,1.964,1.964,0,0,1,1.945,3.928Z" transform="translate(64.371 131.232)" fill="#f2e2d0"/>
        <ellipse id="Ellipse_104" data-name="Ellipse 104" cx="2.046" cy="2.046" rx="2.046" ry="2.046" transform="matrix(0.999, -0.043, 0.043, 0.999, 42.555, 115.584)" fill="#f2e2d0"/>
        <path id="Path_2407" data-name="Path 2407" d="M1.083,4.027a2.156,2.156,0,1,1,2.944-.8A2.156,2.156,0,0,1,1.083,4.027Z" transform="translate(70.65 69.742)" fill="#f2e2d0"/>
        <path id="Path_2408" data-name="Path 2408" d="M3.058.02A2.731,2.731,0,1,1,.02,2.4,2.731,2.731,0,0,1,3.058.02Z" transform="translate(72.587 93.744)" fill="#f2e2d0"/>
        <path id="Path_2409" data-name="Path 2409" d="M.125,3.04A2.3,2.3,0,1,1,3.04,4.467,2.295,2.295,0,0,1,.125,3.04Z" transform="translate(70.581 211.58)" fill="#f2e2d0"/>
        <path id="Path_2410" data-name="Path 2410" d="M3.947,4.4A2.454,2.454,0,1,1,4.4.961,2.454,2.454,0,0,1,3.947,4.4Z" transform="translate(61.594 113.854)" fill="#f2e2d0"/>
        <path id="Path_2411" data-name="Path 2411" d="M2.448.014A2.2,2.2,0,1,1,.014,1.955,2.2,2.2,0,0,1,2.448.014Z" transform="translate(43.312 37.382)" fill="#f2e2d0"/>
        <path id="Path_2412" data-name="Path 2412" d="M4.221,2.281A2.114,2.114,0,1,1,2.28.007,2.114,2.114,0,0,1,4.221,2.281Z" transform="translate(32.958 58.272)" fill="#f2e2d0"/>
        <path id="Path_2413" data-name="Path 2413" d="M2.823.014A2.558,2.558,0,1,1,.014,2.293,2.557,2.557,0,0,1,2.823.014Z" transform="translate(16.08 5.159)" fill="#f2e2d0"/>
        <path id="Path_2414" data-name="Path 2414" d="M2.419.02A2.747,2.747,0,1,1,.02,3.077,2.748,2.748,0,0,1,2.419.02Z" transform="translate(37.137 47.183)" fill="#f2e2d0"/>
        <ellipse id="Ellipse_105" data-name="Ellipse 105" cx="2.746" cy="2.746" rx="2.746" ry="2.746" transform="matrix(0.814, -0.581, 0.581, 0.814, 32.574, 21.718)" fill="#f2e2d0"/>
        <path id="Path_2415" data-name="Path 2415" d="M3.374,3.341A1.967,1.967,0,1,1,3.341.56,1.966,1.966,0,0,1,3.374,3.341Z" transform="translate(85.017 83.531)" fill="#f2e2d0"/>
        <path id="Path_2416" data-name="Path 2416" d="M.886,4.332a2.447,2.447,0,1,1,3.446-.323A2.448,2.448,0,0,1,.886,4.332Z" transform="translate(100.241 42.82)" fill="#f2e2d0"/>
        <path id="Path_2417" data-name="Path 2417" d="M1.46.109a2.133,2.133,0,1,1-1.35,2.7A2.134,2.134,0,0,1,1.46.109Z" transform="translate(99.514 58.25)" fill="#f2e2d0"/>
        <path id="Path_2418" data-name="Path 2418" d="M4.7,1.135a2.57,2.57,0,1,1-3.567-.7A2.569,2.569,0,0,1,4.7,1.135Z" transform="translate(92.099 67.218)" fill="#f2e2d0"/>
        <path id="Path_2419" data-name="Path 2419" d="M4.263,2.362a2.138,2.138,0,1,1-1.9-2.35A2.138,2.138,0,0,1,4.263,2.362Z" transform="translate(71.829 78.843)" fill="#f2e2d0"/>
        <path id="Path_2420" data-name="Path 2420" d="M5.058,2.582A2.529,2.529,0,1,1,2.582,0,2.529,2.529,0,0,1,5.058,2.582Z" transform="translate(21.608 58.676)" fill="#f2e2d0"/>
        <path id="Path_2421" data-name="Path 2421" d="M2.874.014A2.6,2.6,0,1,1,.014,2.329,2.6,2.6,0,0,1,2.874.014Z" transform="translate(94.497 128.63)" fill="#f2e2d0"/>
        <path id="Path_2422" data-name="Path 2422" d="M1.366,5.021A2.683,2.683,0,1,1,5.021,4,2.683,2.683,0,0,1,1.366,5.021Z" transform="translate(84.414 33.928)" fill="#f2e2d0"/>
        <path id="Path_2423" data-name="Path 2423" d="M3.754,3.729A2.192,2.192,0,1,1,3.73.63,2.191,2.191,0,0,1,3.754,3.729Z" transform="translate(66.217 101.063)" fill="#f2e2d0"/>
        <path id="Path_2424" data-name="Path 2424" d="M1.043,4.531a2.5,2.5,0,1,1,3.487-.576A2.5,2.5,0,0,1,1.043,4.531Z" transform="translate(73.528 193.148)" fill="#f2e2d0"/>
        <path id="Path_2425" data-name="Path 2425" d="M.126,3.193A2.422,2.422,0,1,1,3.193,4.719,2.422,2.422,0,0,1,.126,3.193Z" transform="translate(42.089 58.002)" fill="#f2e2d0"/>
        <path id="Path_2426" data-name="Path 2426" d="M4.4,2.049A2.2,2.2,0,1,1,2.049.006,2.2,2.2,0,0,1,4.4,2.049Z" transform="translate(19.814 112.688)" fill="#f2e2d0"/>
        <path id="Path_2427" data-name="Path 2427" d="M3.662,3.076A1.991,1.991,0,1,1,3.076.321,1.991,1.991,0,0,1,3.662,3.076Z" transform="translate(50.229 131.239)" fill="#f2e2d0"/>
        <path id="Path_2428" data-name="Path 2428" d="M2.747,4.708a2.369,2.369,0,1,1,1.96-2.717A2.369,2.369,0,0,1,2.747,4.708Z" transform="translate(112.712 177.759)" fill="#f2e2d0"/>
        <path id="Path_2429" data-name="Path 2429" d="M2.753,4.238A2.16,2.16,0,1,1,4.238,1.569,2.16,2.16,0,0,1,2.753,4.238Z" transform="translate(2.789 108.915)" fill="#f2e2d0"/>
        <path id="Path_2430" data-name="Path 2430" d="M4.039,1.528A2.053,2.053,0,1,1,1.527.069,2.053,2.053,0,0,1,4.039,1.528Z" transform="translate(73.83 174.914)" fill="#f2e2d0"/>
        <path id="Path_2431" data-name="Path 2431" d="M4.874,4.331A2.707,2.707,0,1,1,4.331.541,2.707,2.707,0,0,1,4.874,4.331Z" transform="translate(2.248 85.252)" fill="#f2e2d0"/>
        <path id="Path_2432" data-name="Path 2432" d="M5.566,2.836A2.783,2.783,0,1,1,2.836,0,2.783,2.783,0,0,1,5.566,2.836Z" transform="translate(117.797 119.318)" fill="#f2e2d0"/>
        <path id="Path_2433" data-name="Path 2433" d="M.448,3.574a2.233,2.233,0,1,1,3.127.444A2.233,2.233,0,0,1,.448,3.574Z" transform="translate(48.958 218.17)" fill="#f2e2d0"/>
        <path id="Path_2434" data-name="Path 2434" d="M2.758.146A2.007,2.007,0,1,1,.147,1.256,2.006,2.006,0,0,1,2.758.146Z" transform="translate(43.271 14.223)" fill="#f2e2d0"/>
        <path id="Path_2435" data-name="Path 2435" d="M4.685,2.052A2.352,2.352,0,1,1,2.052.019,2.351,2.351,0,0,1,4.685,2.052Z" transform="translate(30.649 38.888)" fill="#f2e2d0"/>
        <path id="Path_2436" data-name="Path 2436" d="M4.224,1.59A2.149,2.149,0,1,1,1.59.074,2.149,2.149,0,0,1,4.224,1.59Z" transform="translate(20.7 187.948)" fill="#f2e2d0"/>
        <path id="Path_2437" data-name="Path 2437" d="M3.922,2.828A2.04,2.04,0,1,1,2.829.159,2.04,2.04,0,0,1,3.922,2.828Z" transform="translate(118.621 88.302)" fill="#f2e2d0"/>
        <path id="Path_2438" data-name="Path 2438" d="M1.068,3.959a2.119,2.119,0,1,1,2.89-.789A2.118,2.118,0,0,1,1.068,3.959Z" transform="translate(56.294 224.617)" fill="#f2e2d0"/>
        <path id="Path_2439" data-name="Path 2439" d="M1.738.048a2.191,2.191,0,1,1-1.69,2.6A2.191,2.191,0,0,1,1.738.048Z" transform="translate(11.101 168.445)" fill="#f2e2d0"/>
        <path id="Path_2440" data-name="Path 2440" d="M.71,3.611a2.057,2.057,0,1,1,2.9-.208A2.057,2.057,0,0,1,.71,3.611Z" transform="translate(67.389 183.641)" fill="#f2e2d0"/>
        <path id="Path_2441" data-name="Path 2441" d="M1.407,4.092A2.105,2.105,0,1,1,4.091,2.805,2.105,2.105,0,0,1,1.407,4.092Z" transform="translate(52.944 74.045)" fill="#f2e2d0"/>
        <path id="Path_2442" data-name="Path 2442" d="M.98.437A2.343,2.343,0,1,1,.437,3.706,2.344,2.344,0,0,1,.98.437Z" transform="translate(105.181 172.713)" fill="#f2e2d0"/>
        <path id="Path_2443" data-name="Path 2443" d="M.04,2.634A2.219,2.219,0,1,1,2.634,4.4,2.218,2.218,0,0,1,.04,2.634Z" transform="translate(82.269 65.333)" fill="#f2e2d0"/>
        <path id="Path_2444" data-name="Path 2444" d="M1.137.414A2.521,2.521,0,1,1,.414,3.905,2.521,2.521,0,0,1,1.137.414Z" transform="translate(105.95 118.003)" fill="#f2e2d0"/>
        <path id="Path_2445" data-name="Path 2445" d="M4.487,5.044a2.8,2.8,0,1,1,.557-3.925A2.8,2.8,0,0,1,4.487,5.044Z" transform="translate(90.285 99.171)" fill="#f2e2d0"/>
        <path id="Path_2446" data-name="Path 2446" d="M1.125.28A2.2,2.2,0,1,1,.279,3.267,2.2,2.2,0,0,1,1.125.28Z" transform="translate(112.401 186.939)" fill="#f2e2d0"/>
        <path id="Path_2447" data-name="Path 2447" d="M1.362,4.39A2.293,2.293,0,1,1,4.389,3.226,2.294,2.294,0,0,1,1.362,4.39Z" transform="translate(2.184 68.285)" fill="#f2e2d0"/>
        <path id="Path_2448" data-name="Path 2448" d="M.269,1.492a2.655,2.655,0,1,1,1.223,3.55A2.655,2.655,0,0,1,.269,1.492Z" transform="translate(83.19 92.669)" fill="#f2e2d0"/>
        <path id="Path_2449" data-name="Path 2449" d="M5.344,2.975A2.68,2.68,0,1,1,2.975.016,2.68,2.68,0,0,1,5.344,2.975Z" transform="translate(98.848 148.868)" fill="#f2e2d0"/>
        <path id="Path_2450" data-name="Path 2450" d="M2.372.03A2.777,2.777,0,1,1,.03,3.183,2.777,2.777,0,0,1,2.372.03Z" transform="translate(80.152 158.186)" fill="#f2e2d0"/>
        <path id="Path_2451" data-name="Path 2451" d="M1.876,5.41A2.78,2.78,0,1,1,5.41,3.687,2.779,2.779,0,0,1,1.876,5.41Z" transform="translate(83.917 24.865)" fill="#f2e2d0"/>
        <path id="Path_2452" data-name="Path 2452" d="M3.362,3.349A1.965,1.965,0,1,1,3.349.569,1.965,1.965,0,0,1,3.362,3.349Z" transform="translate(75.571 131.408)" fill="#f2e2d0"/>
        <path id="Path_2453" data-name="Path 2453" d="M2.065.028A2.433,2.433,0,1,1,.028,2.8,2.433,2.433,0,0,1,2.065.028Z" transform="translate(2.859 97.567)" fill="#f2e2d0"/>
        <path id="Path_2454" data-name="Path 2454" d="M1.664,4.753A2.439,2.439,0,1,1,4.752,3.217,2.439,2.439,0,0,1,1.664,4.753Z" transform="translate(63.664 173.016)" fill="#f2e2d0"/>
        <path id="Path_2455" data-name="Path 2455" d="M3.5,4.164a2.265,2.265,0,1,1,.662-3.134A2.265,2.265,0,0,1,3.5,4.164Z" transform="translate(57.482 20.239)" fill="#f2e2d0"/>
        <path id="Path_2456" data-name="Path 2456" d="M.121,2.887A2.173,2.173,0,1,1,2.887,4.226,2.173,2.173,0,0,1,.121,2.887Z" transform="translate(72.331 61.075)" fill="#f2e2d0"/>
        <path id="Path_2457" data-name="Path 2457" d="M1.156.193A2.015,2.015,0,1,1,.193,2.875,2.014,2.014,0,0,1,1.156.193Z" transform="translate(110.424 134.943)" fill="#f2e2d0"/>
        <ellipse id="Ellipse_106" data-name="Ellipse 106" cx="2.362" cy="2.362" rx="2.362" ry="2.362" transform="translate(101.163 76.852) rotate(-40.06)" fill="#f2e2d0"/>
        <path id="Path_2458" data-name="Path 2458" d="M1.566.25A2.7,2.7,0,1,1,.249,3.829,2.7,2.7,0,0,1,1.566.25Z" transform="translate(100.326 107.015)" fill="#f2e2d0"/>
        <path id="Path_2459" data-name="Path 2459" d="M.445,4.078a2.618,2.618,0,1,1,3.633.712A2.617,2.617,0,0,1,.445,4.078Z" transform="translate(119.014 103.521)" fill="#f2e2d0"/>
        <path id="Path_2460" data-name="Path 2460" d="M4.4,2.153A2.2,2.2,0,1,1,2.153,0,2.2,2.2,0,0,1,4.4,2.153Z" transform="translate(84.437 179.369)" fill="#f2e2d0"/>
        <path id="Path_2461" data-name="Path 2461" d="M.21,3.134A2.2,2.2,0,1,1,3.134,4.187,2.2,2.2,0,0,1,.21,3.134Z" transform="translate(56.752 154.646)" fill="#f2e2d0"/>
        <path id="Path_2462" data-name="Path 2462" d="M.015,2.506A2.792,2.792,0,1,1,2.506,5.57,2.793,2.793,0,0,1,.015,2.506Z" transform="translate(2.687 57.766)" fill="#f2e2d0"/>
        <path id="Path_2463" data-name="Path 2463" d="M1.615,3.929a1.982,1.982,0,1,1,2.315-1.58A1.981,1.981,0,0,1,1.615,3.929Z" transform="translate(53.845 30.024)" fill="#f2e2d0"/>
        <path id="Path_2464" data-name="Path 2464" d="M3.271,4.191a2.226,2.226,0,1,1,.921-3.01A2.225,2.225,0,0,1,3.271,4.191Z" transform="translate(17.281 42.59)" fill="#f2e2d0"/>
        <path id="Path_2465" data-name="Path 2465" d="M.041,3.236a2.764,2.764,0,1,1,3.2,2.251A2.764,2.764,0,0,1,.041,3.236Z" transform="translate(25.308 104.93)" fill="#f2e2d0"/>
        <path id="Path_2466" data-name="Path 2466" d="M.572.7A2.161,2.161,0,1,1,.7,3.749,2.161,2.161,0,0,1,.572.7Z" transform="translate(3.394 135.81)" fill="#f2e2d0"/>
        <path id="Path_2467" data-name="Path 2467" d="M.211,1.117a2.014,2.014,0,1,1,.906,2.7A2.014,2.014,0,0,1,.211,1.117Z" transform="translate(48.219 66.44)" fill="#f2e2d0"/>
        <path id="Path_2468" data-name="Path 2468" d="M.708.9A2.73,2.73,0,1,1,.9,4.753,2.73,2.73,0,0,1,.708.9Z" transform="translate(41.29 124.865)" fill="#f2e2d0"/>
        <path id="Path_2469" data-name="Path 2469" d="M4.866,3.961A2.618,2.618,0,1,1,3.96.37,2.617,2.617,0,0,1,4.866,3.961Z" transform="translate(85.922 124.336)" fill="#f2e2d0"/>
        <path id="Path_2470" data-name="Path 2470" d="M1.679,4.692A2.4,2.4,0,1,1,4.692,3.125,2.4,2.4,0,0,1,1.679,4.692Z" transform="translate(37.414 30.395)" fill="#f2e2d0"/>
        <ellipse id="Ellipse_107" data-name="Ellipse 107" cx="2.419" cy="2.419" rx="2.419" ry="2.419" transform="translate(117.204 140.25) rotate(-36.83)" fill="#f2e2d0"/>
        <path id="Path_2471" data-name="Path 2471" d="M2.126,4.221A2.11,2.11,0,1,1,4.221,2.1,2.111,2.111,0,0,1,2.126,4.221Z" transform="translate(73.612 165.484)" fill="#f2e2d0"/>
        <path id="Path_2472" data-name="Path 2472" d="M.219,1.55A2.592,2.592,0,1,1,1.551,4.966,2.591,2.591,0,0,1,.219,1.55Z" transform="translate(119.402 111.917)" fill="#f2e2d0"/>
        <path id="Path_2473" data-name="Path 2473" d="M4.464,1A2.474,2.474,0,1,1,1,.485,2.474,2.474,0,0,1,4.464,1Z" transform="translate(97.223 196.544)" fill="#f2e2d0"/>
        <path id="Path_2474" data-name="Path 2474" d="M1.218,4.512a2.414,2.414,0,1,1,3.293-.9A2.414,2.414,0,0,1,1.218,4.512Z" transform="translate(57.049 200.847)" fill="#f2e2d0"/>
        <path id="Path_2475" data-name="Path 2475" d="M2.7,3.939A2.026,2.026,0,1,1,3.939,1.358,2.026,2.026,0,0,1,2.7,3.939Z" transform="translate(58.65 125.244)" fill="#f2e2d0"/>
        <ellipse id="Ellipse_108" data-name="Ellipse 108" cx="2.399" cy="2.399" rx="2.399" ry="2.399" transform="translate(78.348 107.689) rotate(-77.986)" fill="#f2e2d0"/>
        <path id="Path_2476" data-name="Path 2476" d="M3.775,1.157A1.976,1.976,0,1,1,1.157.178,1.976,1.976,0,0,1,3.775,1.157Z" transform="translate(121.105 129.627)" fill="#f2e2d0"/>
        <path id="Path_2477" data-name="Path 2477" d="M5.384,2.966A2.7,2.7,0,1,1,2.966.014,2.7,2.7,0,0,1,5.384,2.966Z" transform="translate(50.291 119.867)" fill="#f2e2d0"/>
        <path id="Path_2478" data-name="Path 2478" d="M3.569,5.347A2.738,2.738,0,1,1,5.347,1.908,2.738,2.738,0,0,1,3.569,5.347Z" transform="translate(10.193 114.923)" fill="#f2e2d0"/>
        <path id="Path_2479" data-name="Path 2479" d="M2.112,4.246A2.123,2.123,0,1,1,4.246,2.134,2.123,2.123,0,0,1,2.112,4.246Z" transform="translate(35.088 9.724)" fill="#f2e2d0"/>
        <path id="Path_2480" data-name="Path 2480" d="M1.514.062A2.007,2.007,0,1,1,.062,2.5,2.007,2.007,0,0,1,1.514.062Z" transform="translate(76.892 229.139)" fill="#f2e2d0"/>
        <path id="Path_2481" data-name="Path 2481" d="M4.9,3.4A2.528,2.528,0,1,1,3.4.155,2.528,2.528,0,0,1,4.9,3.4Z" transform="translate(108.985 164.055)" fill="#f2e2d0"/>
        <path id="Path_2482" data-name="Path 2482" d="M.791,3.615a2.015,2.015,0,1,1,2.824-.377A2.014,2.014,0,0,1,.791,3.615Z" transform="translate(101.005 84.925)" fill="#f2e2d0"/>
        <path id="Path_2483" data-name="Path 2483" d="M3.276.054A2.737,2.737,0,1,1,.054,2.2,2.737,2.737,0,0,1,3.276.054Z" transform="translate(93.378 34.399)" fill="#f2e2d0"/>
        <path id="Path_2484" data-name="Path 2484" d="M4.98,1.043A2.8,2.8,0,1,1,1.043.62,2.8,2.8,0,0,1,4.98,1.043Z" transform="translate(70.735 110.478)" fill="#f2e2d0"/>
        <path id="Path_2485" data-name="Path 2485" d="M1.636,5.057A2.625,2.625,0,1,1,5.057,3.615,2.625,2.625,0,0,1,1.636,5.057Z" transform="translate(13.358 51.858)" fill="#f2e2d0"/>
        <path id="Path_2486" data-name="Path 2486" d="M2.818.042A2.374,2.374,0,1,1,.042,1.931,2.375,2.375,0,0,1,2.818.042Z" transform="translate(8.218 158.865)" fill="#f2e2d0"/>
        <path id="Path_2487" data-name="Path 2487" d="M.845.756A2.732,2.732,0,1,1,.756,4.619,2.732,2.732,0,0,1,.845.756Z" transform="translate(82.032 113.647)" fill="#f2e2d0"/>
        <path id="Path_2488" data-name="Path 2488" d="M.323,3.5A2.321,2.321,0,1,1,3.5,4.319,2.321,2.321,0,0,1,.323,3.5Z" transform="translate(6.875 43.243)" fill="#f2e2d0"/>
        <path id="Path_2489" data-name="Path 2489" d="M1.318.118a1.992,1.992,0,1,1-1.2,2.549A1.992,1.992,0,0,1,1.318.118Z" transform="translate(104.165 127.564)" fill="#f2e2d0"/>
        <path id="Path_2490" data-name="Path 2490" d="M.19,1.244a2.118,2.118,0,1,1,1.054,2.8A2.119,2.119,0,0,1,.19,1.244Z" transform="translate(110.287 100.536)" fill="#f2e2d0"/>
        <path id="Path_2491" data-name="Path 2491" d="M4.038.789A2.3,2.3,0,1,1,.79.566,2.3,2.3,0,0,1,4.038.789Z" transform="translate(15.408 177.972)" fill="#f2e2d0"/>
        <path id="Path_2492" data-name="Path 2492" d="M3.585,4.984A2.591,2.591,0,1,1,4.984,1.6,2.591,2.591,0,0,1,3.585,4.984Z" transform="translate(5.445 75.706)" fill="#f2e2d0"/>
        <path id="Path_2493" data-name="Path 2493" d="M4.518,2.852A2.293,2.293,0,1,1,2.853.07,2.293,2.293,0,0,1,4.518,2.852Z" transform="translate(53.614 38.452)" fill="#f2e2d0"/>
        <path id="Path_2494" data-name="Path 2494" d="M1.465,4.046A2.068,2.068,0,1,1,4.046,2.672,2.068,2.068,0,0,1,1.465,4.046Z" transform="translate(111.36 61.096)" fill="#f2e2d0"/>
        <path id="Path_2495" data-name="Path 2495" d="M3.905,4.183A2.372,2.372,0,1,1,4.183.839,2.373,2.373,0,0,1,3.905,4.183Z" transform="translate(109.806 81.149)" fill="#f2e2d0"/>
        <path id="Path_2496" data-name="Path 2496" d="M5.416,2.591A2.709,2.709,0,1,1,2.591,0,2.71,2.71,0,0,1,5.416,2.591Z" transform="translate(116.962 147.926)" fill="#f2e2d0"/>
        <path id="Path_2497" data-name="Path 2497" d="M.433,1.161A2.593,2.593,0,1,1,1.16,4.755,2.592,2.592,0,0,1,.433,1.161Z" transform="translate(22.193 92.232)" fill="#f2e2d0"/>
        <path id="Path_2498" data-name="Path 2498" d="M1.785,4.264A2.147,2.147,0,1,1,4.264,2.51,2.148,2.148,0,0,1,1.785,4.264Z" transform="translate(93.11 77.83)" fill="#f2e2d0"/>
        <path id="Path_2499" data-name="Path 2499" d="M1.191.48A2.742,2.742,0,1,1,.48,4.291,2.743,2.743,0,0,1,1.191.48Z" transform="translate(99.838 136.668)" fill="#f2e2d0"/>
        <path id="Path_2500" data-name="Path 2500" d="M4.3.7A2.546,2.546,0,1,1,.7.8,2.546,2.546,0,0,1,4.3.7Z" transform="translate(61.629 145.458)" fill="#f2e2d0"/>
        <path id="Path_2501" data-name="Path 2501" d="M4.3.468a2.76,2.76,0,1,1-3.83.754A2.76,2.76,0,0,1,4.3.468Z" transform="translate(65.039 25.174)" fill="#f2e2d0"/>
        <path id="Path_2502" data-name="Path 2502" d="M4.9,3.516A2.545,2.545,0,1,1,3.516.193,2.546,2.546,0,0,1,4.9,3.516Z" transform="translate(58.85 65.631)" fill="#f2e2d0"/>
        <path id="Path_2503" data-name="Path 2503" d="M4.214.478a2.686,2.686,0,1,1-3.736.679A2.685,2.685,0,0,1,4.214.478Z" transform="translate(66.199 227.666)" fill="#f2e2d0"/>
        <path id="Path_2504" data-name="Path 2504" d="M4.532,1.305A2.4,2.4,0,1,1,1.305.264,2.4,2.4,0,0,1,4.532,1.305Z" transform="translate(54.141 173.569)" fill="#f2e2d0"/>
        <path id="Path_2505" data-name="Path 2505" d="M1.52.126A2.263,2.263,0,1,1,.126,3.006,2.264,2.264,0,0,1,1.52.126Z" transform="translate(31.743 169.689)" fill="#f2e2d0"/>
        <path id="Path_2506" data-name="Path 2506" d="M.059,1.616A2.108,2.108,0,1,1,1.617,4.158,2.108,2.108,0,0,1,.059,1.616Z" transform="translate(48.206 182.748)" fill="#f2e2d0"/>
        <path id="Path_2507" data-name="Path 2507" d="M4.1.482a2.6,2.6,0,1,1-3.623.61A2.6,2.6,0,0,1,4.1.482Z" transform="translate(26.854 28.319)" fill="#f2e2d0"/>
        <ellipse id="Ellipse_109" data-name="Ellipse 109" cx="2.226" cy="2.226" rx="2.226" ry="2.226" transform="translate(0.546 47.852)" fill="#f2e2d0"/>
        <path id="Path_2508" data-name="Path 2508" d="M4.407,2.59A2.219,2.219,0,1,1,2.59.032,2.22,2.22,0,0,1,4.407,2.59Z" transform="translate(102.933 181.7)" fill="#f2e2d0"/>
        <path id="Path_2509" data-name="Path 2509" d="M3.783,3.106A2.041,2.041,0,1,1,3.105.3,2.041,2.041,0,0,1,3.783,3.106Z" transform="translate(15.31 16.203)" fill="#f2e2d0"/>
        <path id="Path_2510" data-name="Path 2510" d="M.219,1.1a2.005,2.005,0,1,1,.877,2.7A2.005,2.005,0,0,1,.219,1.1Z" transform="translate(31.786 139.617)" fill="#f2e2d0"/>
        <path id="Path_2511" data-name="Path 2511" d="M5.069,3.371A2.594,2.594,0,1,1,3.371.12,2.594,2.594,0,0,1,5.069,3.371Z" transform="translate(88.518 214.619)" fill="#f2e2d0"/>
        <path id="Path_2512" data-name="Path 2512" d="M2.42.01A2.21,2.21,0,1,1,.01,2,2.21,2.21,0,0,1,2.42.01Z" transform="translate(57.942 183.473)" fill="#f2e2d0"/>
        <path id="Path_2513" data-name="Path 2513" d="M4.668,2.675A2.345,2.345,0,1,1,2.675.024,2.345,2.345,0,0,1,4.668,2.675Z" transform="translate(87.854 196.38)" fill="#f2e2d0"/>
        <ellipse id="Ellipse_110" data-name="Ellipse 110" cx="2.545" cy="2.545" rx="2.545" ry="2.545" transform="matrix(0.99, -0.14, 0.14, 0.99, 83.173, 189.049)" fill="#f2e2d0"/>
        <path id="Path_2514" data-name="Path 2514" d="M3.686.435A2.33,2.33,0,1,1,.435.974,2.331,2.331,0,0,1,3.686.435Z" transform="translate(91.978 141.856)" fill="#f2e2d0"/>
        <path id="Path_2515" data-name="Path 2515" d="M2.983.07A2.407,2.407,0,1,1,.07,1.832,2.408,2.408,0,0,1,2.983.07Z" transform="translate(40.229 212.634)" fill="#f2e2d0"/>
        <path id="Path_2516" data-name="Path 2516" d="M.075,2.805a2.231,2.231,0,1,1,2.73,1.581A2.232,2.232,0,0,1,.075,2.805Z" transform="translate(56.711 104.058)" fill="#f2e2d0"/>
        <path id="Path_2517" data-name="Path 2517" d="M1.4,4.573A2.395,2.395,0,1,1,4.573,3.391,2.395,2.395,0,0,1,1.4,4.573Z" transform="translate(68.792 201.857)" fill="#f2e2d0"/>
        <path id="Path_2518" data-name="Path 2518" d="M.236,1.533A2.618,2.618,0,1,1,1.533,5,2.618,2.618,0,0,1,.236,1.533Z" transform="translate(100.277 95.559)" fill="#f2e2d0"/>
        <path id="Path_2519" data-name="Path 2519" d="M.578,3.371a1.975,1.975,0,1,1,2.793,0A1.975,1.975,0,0,1,.578,3.371Z" transform="translate(18.44 123.816)" fill="#f2e2d0"/>
        <path id="Path_2520" data-name="Path 2520" d="M0,2.034a2.032,2.032,0,1,1,2.034,2.03A2.033,2.033,0,0,1,0,2.034Z" transform="translate(22.98 20.734)" fill="#f2e2d0"/>
        <path id="Path_2521" data-name="Path 2521" d="M4.19,1.944A2.1,2.1,0,1,1,1.943.006,2.1,2.1,0,0,1,4.19,1.944Z" transform="translate(14.369 140.549)" fill="#f2e2d0"/>
        <path id="Path_2522" data-name="Path 2522" d="M4.02,2.966A2.1,2.1,0,1,1,2.966.186,2.1,2.1,0,0,1,4.02,2.966Z" transform="translate(32.957 205.144)" fill="#f2e2d0"/>
        <path id="Path_2523" data-name="Path 2523" d="M2.008,0A1.986,1.986,0,1,1,0,1.964,1.986,1.986,0,0,1,2.008,0Z" transform="translate(67.794 138.581)" fill="#f2e2d0"/>
        <path id="Path_2524" data-name="Path 2524" d="M3.117.229a2.152,2.152,0,1,1-2.888.958A2.152,2.152,0,0,1,3.117.229Z" transform="translate(31.476 151.431)" fill="#f2e2d0"/>
        <path id="Path_2525" data-name="Path 2525" d="M4.915,1.111a2.721,2.721,0,1,1-3.8-.583A2.721,2.721,0,0,1,4.915,1.111Z" transform="translate(58.94 210.26)" fill="#f2e2d0"/>
        <path id="Path_2526" data-name="Path 2526" d="M3.949,4.035A2.339,2.339,0,1,1,4.035.729,2.34,2.34,0,0,1,3.949,4.035Z" transform="translate(9.423 34.059)" fill="#f2e2d0"/>
        <path id="Path_2527" data-name="Path 2527" d="M.168,1.369a2.213,2.213,0,1,1,1.2,2.89A2.213,2.213,0,0,1,.168,1.369Z" transform="translate(89.74 56.895)" fill="#f2e2d0"/>
        <path id="Path_2528" data-name="Path 2528" d="M2.212.012a2.453,2.453,0,1,1-2.2,2.682A2.453,2.453,0,0,1,2.212.012Z" transform="translate(81.414 74.28)" fill="#f2e2d0"/>
        <path id="Path_2529" data-name="Path 2529" d="M2.367,4.074A2.049,2.049,0,1,1,4.074,1.733,2.05,2.05,0,0,1,2.367,4.074Z" transform="translate(90.905 162.538)" fill="#f2e2d0"/>
        <path id="Path_2530" data-name="Path 2530" d="M4.914,2.876A2.473,2.473,0,1,1,2.875.033,2.474,2.474,0,0,1,4.914,2.876Z" transform="translate(40.859 189.929)" fill="#f2e2d0"/>
        <path id="Path_2531" data-name="Path 2531" d="M3.73,3.771A2.2,2.2,0,1,1,3.77.664,2.2,2.2,0,0,1,3.73,3.771Z" transform="translate(118.102 79.041)" fill="#f2e2d0"/>
        <path id="Path_2532" data-name="Path 2532" d="M1.178,4.541a2.448,2.448,0,1,1,3.363-.822A2.448,2.448,0,0,1,1.178,4.541Z" transform="translate(75.933 183.213)" fill="#f2e2d0"/>
        <path id="Path_2533" data-name="Path 2533" d="M2.254,5.07A2.543,2.543,0,1,1,5.07,2.834,2.543,2.543,0,0,1,2.254,5.07Z" transform="translate(95.082 118.001)" fill="#f2e2d0"/>
        <path id="Path_2534" data-name="Path 2534" d="M3.585,4.09A2.26,2.26,0,1,1,4.09.935,2.26,2.26,0,0,1,3.585,4.09Z" transform="translate(45.753 155.546)" fill="#f2e2d0"/>
        <path id="Path_2535" data-name="Path 2535" d="M.286,4.016A2.788,2.788,0,1,1,4.017,5.292,2.788,2.788,0,0,1,.286,4.016Z" transform="translate(93.044 176.06)" fill="#f2e2d0"/>
        <path id="Path_2536" data-name="Path 2536" d="M.638,3.7A2.166,2.166,0,1,1,3.7,3.693,2.166,2.166,0,0,1,.638,3.7Z" transform="translate(113.838 70.515)" fill="#f2e2d0"/>
        <path id="Path_2537" data-name="Path 2537" d="M3.863,4.706a2.539,2.539,0,1,1,.843-3.49A2.54,2.54,0,0,1,3.863,4.706Z" transform="translate(116.027 158.503)" fill="#f2e2d0"/>
        <path id="Path_2538" data-name="Path 2538" d="M.3,1.114a2.22,2.22,0,1,1,.818,3.031A2.22,2.22,0,0,1,.3,1.114Z" transform="translate(53.822 4.577)" fill="#f2e2d0"/>
        <ellipse id="Ellipse_111" data-name="Ellipse 111" cx="2.648" cy="2.648" rx="2.648" ry="2.648" transform="translate(75.053 143.175) rotate(-32.194)" fill="#f2e2d0"/>
        <path id="Path_2539" data-name="Path 2539" d="M.937,3.693a2,2,0,1,1,2.756-.631A2,2,0,0,1,.937,3.693Z" transform="translate(70.434 14.943)" fill="#f2e2d0"/>
        <path id="Path_2540" data-name="Path 2540" d="M.05,3.243A2.723,2.723,0,1,1,3.243,5.4,2.722,2.722,0,0,1,.05,3.243Z" transform="translate(103.031 204.879)" fill="#f2e2d0"/>
        <path id="Path_2541" data-name="Path 2541" d="M4.239.5A2.68,2.68,0,1,1,.5,1.123,2.68,2.68,0,0,1,4.239.5Z" transform="translate(13.702 102.049)" fill="#f2e2d0"/>
        <path id="Path_2542" data-name="Path 2542" d="M2.191,0A2.112,2.112,0,1,1,0,2.031,2.111,2.111,0,0,1,2.191,0Z" transform="translate(85.654 147.359)" fill="#f2e2d0"/>
        <path id="Path_2543" data-name="Path 2543" d="M.456,3.618a2.257,2.257,0,1,1,3.162.44A2.258,2.258,0,0,1,.456,3.618Z" transform="translate(45.858 23.952)" fill="#f2e2d0"/>
        <path id="Path_2544" data-name="Path 2544" d="M4.087,1.366A2.111,2.111,0,1,1,1.365.137,2.111,2.111,0,0,1,4.087,1.366Z" transform="translate(91.589 154.066)" fill="#f2e2d0"/>
        <path id="Path_2545" data-name="Path 2545" d="M.136,1.388a2.137,2.137,0,1,1,1.252,2.75A2.137,2.137,0,0,1,.136,1.388Z" transform="translate(79.372 56.365)" fill="#f2e2d0"/>
        <path id="Path_2546" data-name="Path 2546" d="M3.771,1.031A2.013,2.013,0,1,1,1.03.257,2.013,2.013,0,0,1,3.771,1.031Z" transform="translate(7.792 12.787)" fill="#f2e2d0"/>
        <path id="Path_2547" data-name="Path 2547" d="M5.119,1.669A2.654,2.654,0,1,1,1.669.191,2.653,2.653,0,0,1,5.119,1.669Z" transform="translate(2.434 122.365)" fill="#f2e2d0"/>
        <path id="Path_2548" data-name="Path 2548" d="M1.018,4.257a2.331,2.331,0,1,1,3.239-.613A2.332,2.332,0,0,1,1.018,4.257Z" transform="translate(58.219 47.429)" fill="#f2e2d0"/>
        <path id="Path_2549" data-name="Path 2549" d="M.1,1.366A2,2,0,1,1,1.365,3.89,2,2,0,0,1,.1,1.366Z" transform="translate(76.129 85.307)" fill="#f2e2d0"/>
        <path id="Path_2550" data-name="Path 2550" d="M3.559,4.916A2.559,2.559,0,1,1,4.916,1.561,2.558,2.558,0,0,1,3.559,4.916Z" transform="translate(13.175 25.281)" fill="#f2e2d0"/>
        <path id="Path_2551" data-name="Path 2551" d="M4.936,3.061a2.5,2.5,0,1,1-1.874-3A2.5,2.5,0,0,1,4.936,3.061Z" transform="translate(23.787 80.456)" fill="#f2e2d0"/>
        <path id="Path_2552" data-name="Path 2552" d="M.212,1.374A2.347,2.347,0,1,1,1.374,4.483,2.347,2.347,0,0,1,.212,1.374Z" transform="translate(55.446 94.451)" fill="#f2e2d0"/>
        <path id="Path_2553" data-name="Path 2553" d="M4.646,1.089A2.554,2.554,0,1,1,1.089.462,2.554,2.554,0,0,1,4.646,1.089Z" transform="translate(16.386 154.083)" fill="#f2e2d0"/>
        <path id="Path_2554" data-name="Path 2554" d="M2.619,3.872A1.987,1.987,0,1,1,3.872,1.358,1.987,1.987,0,0,1,2.619,3.872Z" transform="translate(109.682 198.029)" fill="#f2e2d0"/>
        <path id="Path_2555" data-name="Path 2555" d="M2.287.033a2.708,2.708,0,1,1-2.254,3.1A2.708,2.708,0,0,1,2.287.033Z" transform="translate(80.3 211.796)" fill="#f2e2d0"/>
        <path id="Path_2556" data-name="Path 2556" d="M.459.791A2.1,2.1,0,1,1,.79,3.745,2.1,2.1,0,0,1,.459.791Z" transform="translate(68.81 122.577)" fill="#f2e2d0"/>
        <path id="Path_2557" data-name="Path 2557" d="M3.93,2.5A2,2,0,1,1,2.5.064,2,2,0,0,1,3.93,2.5Z" transform="translate(92.86 88.698)" fill="#f2e2d0"/>
        <ellipse id="Ellipse_112" data-name="Ellipse 112" cx="2.787" cy="2.787" rx="2.787" ry="2.787" transform="translate(43.39 1.95)" fill="#f2e2d0"/>
        <path id="Path_2558" data-name="Path 2558" d="M2.843,0A2.776,2.776,0,1,1,0,2.71,2.775,2.775,0,0,1,2.843,0Z" transform="translate(83.219 168.973)" fill="#f2e2d0"/>
        <path id="Path_2559" data-name="Path 2559" d="M4.035,2.195A2.021,2.021,0,1,1,2.195.008,2.022,2.022,0,0,1,4.035,2.195Z" transform="translate(54.997 84.015)" fill="#f2e2d0"/>
        <path id="Path_2560" data-name="Path 2560" d="M4.03,1.827A2.02,2.02,0,1,1,1.828.009,2.02,2.02,0,0,1,4.03,1.827Z" transform="translate(64.502 88.762)" fill="#f2e2d0"/>
        <path id="Path_2561" data-name="Path 2561" d="M.409,1.03A2.357,2.357,0,1,1,1.03,4.305,2.358,2.358,0,0,1,.409,1.03Z" transform="translate(19.907 34.487)" fill="#f2e2d0"/>
        <path id="Path_2562" data-name="Path 2562" d="M4.97,3.074A2.516,2.516,0,1,1,3.074.063,2.516,2.516,0,0,1,4.97,3.074Z" transform="translate(106.155 51.717)" fill="#f2e2d0"/>
        <path id="Path_2563" data-name="Path 2563" d="M3.256,3.959a2.137,2.137,0,1,1,.7-2.94A2.138,2.138,0,0,1,3.256,3.959Z" transform="translate(11.939 130.207)" fill="#f2e2d0"/>
        <path id="Path_2564" data-name="Path 2564" d="M2.286,5.073A2.543,2.543,0,1,1,5.073,2.8,2.543,2.543,0,0,1,2.286,5.073Z" transform="translate(62.369 162.813)" fill="#f2e2d0"/>
        <path id="Path_2565" data-name="Path 2565" d="M1.882,4.031A2.018,2.018,0,1,1,4.031,2.154,2.018,2.018,0,0,1,1.882,4.031Z" transform="translate(118.552 96.106)" fill="#f2e2d0"/>
        <path id="Path_2566" data-name="Path 2566" d="M.023,2.289A2.637,2.637,0,1,1,2.289,5.252,2.637,2.637,0,0,1,.023,2.289Z" transform="translate(113.19 126.624)" fill="#f2e2d0"/>
        <path id="Path_2567" data-name="Path 2567" d="M.428,3.548a2.233,2.233,0,1,1,3.12.491A2.232,2.232,0,0,1,.428,3.548Z" transform="translate(77.041 121.358)" fill="#f2e2d0"/>
        <path id="Path_2568" data-name="Path 2568" d="M4.5,2.257A2.251,2.251,0,1,1,2.257,0,2.25,2.25,0,0,1,4.5,2.257Z" transform="translate(39.924 199.516)" fill="#f2e2d0"/>
        <path id="Path_2569" data-name="Path 2569" d="M2.848.017A2.557,2.557,0,1,1,.017,2.266,2.558,2.558,0,0,1,2.848.017Z" transform="translate(103.195 65.569)" fill="#f2e2d0"/>
        <ellipse id="Ellipse_113" data-name="Ellipse 113" cx="2.525" cy="2.525" rx="2.525" ry="2.525" transform="translate(25.375 48.675) rotate(-8.911)" fill="#f2e2d0"/>
        <path id="Path_2570" data-name="Path 2570" d="M.414,1.213a2.629,2.629,0,1,1,.8,3.631A2.629,2.629,0,0,1,.414,1.213Z" transform="translate(63.704 37.351)" fill="#f2e2d0"/>
        <ellipse id="Ellipse_114" data-name="Ellipse 114" cx="2.398" cy="2.398" rx="2.398" ry="2.398" transform="translate(64.429 218.932)" fill="#f2e2d0"/>
        <path id="Path_2571" data-name="Path 2571" d="M2.634,4.579a2.3,2.3,0,1,1,1.945-2.61A2.3,2.3,0,0,1,2.634,4.579Z" transform="translate(39.06 146.59)" fill="#f2e2d0"/>
        <path id="Path_2572" data-name="Path 2572" d="M1.376,5.116A2.74,2.74,0,1,1,5.117,4.105,2.741,2.741,0,0,1,1.376,5.116Z" transform="translate(70.319 47.528)" fill="#f2e2d0"/>
        <path id="Path_2573" data-name="Path 2573" d="M5.143,2.989A2.587,2.587,0,1,1,2.989.032,2.587,2.587,0,0,1,5.143,2.989Z" transform="translate(36.133 105.242)" fill="#f2e2d0"/>
        <path id="Path_2574" data-name="Path 2574" d="M1.709.184A2.682,2.682,0,1,1,.184,3.656,2.682,2.682,0,0,1,1.709.184Z" transform="translate(45.674 87.652)" fill="#f2e2d0"/>
        <ellipse id="Ellipse_115" data-name="Ellipse 115" cx="2.395" cy="2.395" rx="2.395" ry="2.395" transform="matrix(0.941, -0.338, 0.338, 0.941, 107.613, 154.754)" fill="#f2e2d0"/>
        <path id="Path_2575" data-name="Path 2575" d="M5.4,1.722A2.809,2.809,0,1,1,1.722.22,2.808,2.808,0,0,1,5.4,1.722Z" transform="translate(5.189 146.938)" fill="#f2e2d0"/>
        <path id="Path_2576" data-name="Path 2576" d="M1.5,4.451A2.3,2.3,0,1,1,4.451,3.088,2.295,2.295,0,0,1,1.5,4.451Z" transform="translate(41.205 136.505)" fill="#f2e2d0"/>
        <path id="Path_2577" data-name="Path 2577" d="M1.708,5.3A2.751,2.751,0,1,1,5.3,3.8,2.751,2.751,0,0,1,1.708,5.3Z" transform="translate(34.297 87.698)" fill="#f2e2d0"/>
        <path id="Path_2578" data-name="Path 2578" d="M5.273,3.525A2.7,2.7,0,1,1,3.525.129,2.7,2.7,0,0,1,5.273,3.525Z" transform="translate(79.898 201.885)" fill="#f2e2d0"/>
        <path id="Path_2579" data-name="Path 2579" d="M.363,3.108a1.968,1.968,0,1,1,2.744.465A1.968,1.968,0,0,1,.363,3.108Z" transform="translate(51.845 14.168)" fill="#f2e2d0"/>
        <path id="Path_2580" data-name="Path 2580" d="M5.1,1.762A2.621,2.621,0,1,1,1.762.145,2.621,2.621,0,0,1,5.1,1.762Z" transform="translate(107.794 143.541)" fill="#f2e2d0"/>
        <path id="Path_2581" data-name="Path 2581" d="M3.6.164A2.674,2.674,0,1,1,.164,1.754,2.673,2.673,0,0,1,3.6.164Z" transform="translate(68.404 153.426)" fill="#f2e2d0"/>
        <path id="Path_2582" data-name="Path 2582" d="M3.78,2.945A2.006,2.006,0,1,1,2.945.233,2.006,2.006,0,0,1,3.78,2.945Z" transform="translate(91.687 205.729)" fill="#f2e2d0"/>
        <path id="Path_2583" data-name="Path 2583" d="M.858,4.432a2.532,2.532,0,1,1,3.573-.227A2.532,2.532,0,0,1,.858,4.432Z" transform="translate(88.223 43.349)" fill="#f2e2d0"/>
        <path id="Path_2584" data-name="Path 2584" d="M5.03,3.6A2.611,2.611,0,1,1,3.6.193,2.611,2.611,0,0,1,5.03,3.6Z" transform="translate(32.902 77.199)" fill="#f2e2d0"/>
        <path id="Path_2585" data-name="Path 2585" d="M4.3,3.6A2.334,2.334,0,1,1,3.6.373,2.335,2.335,0,0,1,4.3,3.6Z" transform="translate(48.206 205.688)" fill="#f2e2d0"/>
        <path id="Path_2586" data-name="Path 2586" d="M1.936.063A2.49,2.49,0,1,1,.063,3.045,2.49,2.49,0,0,1,1.936.063Z" transform="translate(55.681 137.041)" fill="#f2e2d0"/>
        <path id="Path_2587" data-name="Path 2587" d="M.278,1.167a2.25,2.25,0,1,1,.889,3.055A2.249,2.249,0,0,1,.278,1.167Z" transform="translate(95.431 49.599)" fill="#f2e2d0"/>
        <path id="Path_2588" data-name="Path 2588" d="M1.406,4.1A2.111,2.111,0,1,1,4.1,2.818,2.111,2.111,0,0,1,1.406,4.1Z" transform="translate(34.47 115.506)" fill="#f2e2d0"/>
        <path id="Path_2589" data-name="Path 2589" d="M.062,1.9A2.439,2.439,0,1,1,1.9,4.817,2.439,2.439,0,0,1,.062,1.9Z" transform="translate(43.453 170.788)" fill="#f2e2d0"/>
        <path id="Path_2590" data-name="Path 2590" d="M.046,1.962a2.428,2.428,0,1,1,1.916,2.85A2.428,2.428,0,0,1,.046,1.962Z" transform="translate(62.5 77.067)" fill="#f2e2d0"/>
        <path id="Path_2591" data-name="Path 2591" d="M1.329,4.893A2.616,2.616,0,1,1,4.893,3.9,2.617,2.617,0,0,1,1.329,4.893Z" transform="translate(22.521 145.284)" fill="#f2e2d0"/>
        <path id="Path_2592" data-name="Path 2592" d="M4.095,2.44A2.064,2.064,0,1,1,2.44.035,2.065,2.065,0,0,1,4.095,2.44Z" transform="translate(14.404 83.409)" fill="#f2e2d0"/>
        <path id="Path_2593" data-name="Path 2593" d="M3.257,3.717A2.053,2.053,0,1,1,3.717.85,2.053,2.053,0,0,1,3.257,3.717Z" transform="translate(77.357 150.869)" fill="#f2e2d0"/>
        <path id="Path_2594" data-name="Path 2594" d="M.459,1A2.41,2.41,0,1,1,1,4.361,2.41,2.41,0,0,1,.459,1Z" transform="translate(38.081 68.168)" fill="#f2e2d0"/>
        <path id="Path_2595" data-name="Path 2595" d="M3.967,5.116A2.712,2.712,0,1,1,5.116,1.457,2.712,2.712,0,0,1,3.967,5.116Z" transform="translate(61.751 9.563)" fill="#f2e2d0"/>
        <path id="Path_2596" data-name="Path 2596" d="M4.23,3.8A2.361,2.361,0,1,1,3.8.491,2.361,2.361,0,0,1,4.23,3.8Z" transform="translate(23.838 132.797)" fill="#f2e2d0"/>
        <path id="Path_2597" data-name="Path 2597" d="M3.013,5.4A2.709,2.709,0,1,1,5.4,2.407,2.71,2.71,0,0,1,3.013,5.4Z" transform="translate(48.979 145.115)" fill="#f2e2d0"/>
        <path id="Path_2598" data-name="Path 2598" d="M1.614.06A2.111,2.111,0,1,1,.06,2.61,2.111,2.111,0,0,1,1.614.06Z" transform="translate(82.441 49.057)" fill="#f2e2d0"/>
        <path id="Path_2599" data-name="Path 2599" d="M.524,1.1a2.7,2.7,0,1,1,.58,3.78A2.705,2.705,0,0,1,.524,1.1Z" transform="translate(104.085 190.28)" fill="#f2e2d0"/>
        <path id="Path_2600" data-name="Path 2600" d="M4.689,3.366A2.436,2.436,0,1,1,3.366.185,2.436,2.436,0,0,1,4.689,3.366Z" transform="translate(26.244 159.169)" fill="#f2e2d0"/>
        <path id="Path_2601" data-name="Path 2601" d="M4.113,2.056A2.056,2.056,0,1,1,2.057,0,2.056,2.056,0,0,1,4.113,2.056Z" transform="translate(11.73 92.277)" fill="#f2e2d0"/>
        <path id="Path_2602" data-name="Path 2602" d="M4.052,4.015A2.363,2.363,0,1,1,4.015.674,2.363,2.363,0,0,1,4.052,4.015Z" transform="translate(97.026 167.929)" fill="#f2e2d0"/>
        <path id="Path_2603" data-name="Path 2603" d="M3.194,4.08A2.169,2.169,0,1,1,4.08,1.144,2.168,2.168,0,0,1,3.194,4.08Z" transform="translate(3.178 22.7)" fill="#f2e2d0"/>
        <path id="Path_2604" data-name="Path 2604" d="M3.088.217a2.147,2.147,0,1,1-2.871.991A2.147,2.147,0,0,1,3.088.217Z" transform="translate(32.588 127.897)" fill="#f2e2d0"/>
        <path id="Path_2605" data-name="Path 2605" d="M2.261.018A1.993,1.993,0,1,1,.018,1.726,1.993,1.993,0,0,1,2.261.018Z" transform="translate(27.143 197.227)" fill="#f2e2d0"/>
        <path id="Path_2606" data-name="Path 2606" d="M.032,1.805A2.174,2.174,0,1,1,1.805,4.317,2.174,2.174,0,0,1,.032,1.805Z" transform="translate(38.539 179.602)" fill="#f2e2d0"/>
        <path id="Path_2607" data-name="Path 2607" d="M1.756,4.426a2.239,2.239,0,1,1,2.669-1.7A2.239,2.239,0,0,1,1.756,4.426Z" transform="translate(33.789 0)" fill="#f2e2d0"/>
        <path id="Path_2608" data-name="Path 2608" d="M.1,1.515A2.166,2.166,0,1,1,1.515,4.233,2.167,2.167,0,0,1,.1,1.515Z" transform="translate(52.449 56.986)" fill="#f2e2d0"/>
        <path id="Path_2609" data-name="Path 2609" d="M4.083,3.736A2.3,2.3,0,1,1,3.736.508,2.3,2.3,0,0,1,4.083,3.736Z" transform="translate(0 34.315)" fill="#f2e2d0"/>
        <path id="Path_2610" data-name="Path 2610" d="M3.616,4.163A2.292,2.292,0,1,1,4.163.968,2.292,2.292,0,0,1,3.616,4.163Z" transform="translate(20.673 167.25)" fill="#f2e2d0"/>
        <path id="Path_2611" data-name="Path 2611" d="M5.076,1.832A2.6,2.6,0,1,1,1.831.116,2.6,2.6,0,0,1,5.076,1.832Z" transform="translate(45.309 106.185)" fill="#f2e2d0"/>
        <ellipse id="Ellipse_116" data-name="Ellipse 116" cx="2.46" cy="2.46" rx="2.46" ry="2.46" transform="translate(98.708 213.184)" fill="#f2e2d0"/>
        <path id="Path_2612" data-name="Path 2612" d="M.2,1.17a2.06,2.06,0,1,1,.968,2.748A2.06,2.06,0,0,1,.2,1.17Z" transform="translate(17.159 72.303)" fill="#f2e2d0"/>
        <path id="Path_2613" data-name="Path 2613" d="M1.553.1A2.226,2.226,0,1,1,.1,2.9,2.224,2.224,0,0,1,1.553.1Z" transform="translate(26.656 119.728)" fill="#f2e2d0"/>
        <path id="Path_2614" data-name="Path 2614" d="M1.162.227A2.114,2.114,0,1,1,.227,3.067,2.114,2.114,0,0,1,1.162.227Z" transform="translate(84.76 225.31)" fill="#f2e2d0"/>
        <path id="Path_2615" data-name="Path 2615" d="M.53.672A2.045,2.045,0,1,1,.672,3.561,2.045,2.045,0,0,1,.53.672Z" transform="translate(115.846 169.467)" fill="#f2e2d0"/>
        <path id="Path_2616" data-name="Path 2616" d="M1.5.317A2.783,2.783,0,1,1,.317,4.072,2.783,2.783,0,0,1,1.5.317Z" transform="translate(63.018 55.901)" fill="#f2e2d0"/>
        <path id="Path_2617" data-name="Path 2617" d="M4.954,2.211A2.484,2.484,0,1,1,2.211.015,2.484,2.484,0,0,1,4.954,2.211Z" transform="translate(43.65 77.513)" fill="#f2e2d0"/>
        <path id="Path_2618" data-name="Path 2618" d="M4.311.765A2.508,2.508,0,1,1,.764.706,2.508,2.508,0,0,1,4.311.765Z" transform="translate(31.038 187.682)" fill="#f2e2d0"/>
        <ellipse id="Ellipse_117" data-name="Ellipse 117" cx="2.698" cy="2.698" rx="2.698" ry="2.698" transform="translate(89.854 108.662)" fill="#f2e2d0"/>
        <path id="Path_2619" data-name="Path 2619" d="M.165,3.234A2.367,2.367,0,1,1,3.233,4.571,2.368,2.368,0,0,1,.165,3.234Z" transform="translate(85.04 135.049)" fill="#f2e2d0"/>
        <ellipse id="Ellipse_118" data-name="Ellipse 118" cx="2.209" cy="2.209" rx="2.209" ry="2.209" transform="matrix(0.998, -0.06, 0.06, 0.998, 44.542, 97.827)" fill="#f2e2d0"/>
        <path id="Path_2620" data-name="Path 2620" d="M3.731.5A2.3,2.3,0,1,1,.5.862,2.3,2.3,0,0,1,3.731.5Z" transform="translate(51.351 163.897)" fill="#f2e2d0"/>
        <path id="Path_2621" data-name="Path 2621" d="M1.535.072A2.074,2.074,0,1,1,.072,2.614,2.075,2.075,0,0,1,1.535.072Z" transform="translate(52.562 111.888)" fill="#f2e2d0"/>
      </g>
      <g id="Group_262" data-name="Group 262" transform="translate(0 206.736) rotate(-50)" opacity="0.8">
        <path id="Path_2634" data-name="Path 2634" d="M5.175,14.147a23.737,23.737,0,0,1-3.616-6.7A23.438,23.438,0,0,1,0,0,23.462,23.462,0,0,1,3.617,6.7,23.7,23.7,0,0,1,5.175,14.147Z" transform="translate(17.838 126.358)" fill="#f2e2d0"/>
        <path id="Path_2635" data-name="Path 2635" d="M0,13.221A23.712,23.712,0,0,1,2.648,6.085,23.459,23.459,0,0,1,7.22,0,23.459,23.459,0,0,1,4.572,7.136,23.729,23.729,0,0,1,0,13.221Z" transform="translate(56.521 130.176)" fill="#f2e2d0"/>
        <path id="Path_2637" data-name="Path 2637" d="M14.095,0A23.714,23.714,0,0,1,7.434,3.683,23.438,23.438,0,0,1,0,5.315,23.437,23.437,0,0,1,6.661,1.632,23.737,23.737,0,0,1,14.095,0Z" transform="translate(31.121 129.66)" fill="#f2e2d0"/>
        <path id="Path_2639" data-name="Path 2639" d="M5.176,14.146a23.7,23.7,0,0,1-3.617-6.7A23.444,23.444,0,0,1,0,0,23.461,23.461,0,0,1,3.617,6.7,23.726,23.726,0,0,1,5.176,14.146Z" transform="translate(91.617 124.275)" fill="#f2e2d0"/>
        <path id="Path_2640" data-name="Path 2640" d="M5.175,14.147a23.713,23.713,0,0,1-3.617-6.7A23.464,23.464,0,0,1,0,0,23.462,23.462,0,0,1,3.617,6.7,23.7,23.7,0,0,1,5.175,14.147Z" transform="translate(115.612 129.902)" fill="#f2e2d0"/>
        <path id="Path_2641" data-name="Path 2641" d="M5.175,14.146a23.72,23.72,0,0,1-3.617-6.7A23.47,23.47,0,0,1,0,0,23.47,23.47,0,0,1,3.617,6.7,23.708,23.708,0,0,1,5.175,14.146Z" transform="translate(67.734 107.027)" fill="#f2e2d0"/>
        <path id="Path_2643" data-name="Path 2643" d="M0,13.221A23.709,23.709,0,0,1,2.648,6.085,23.438,23.438,0,0,1,7.22,0,23.443,23.443,0,0,1,4.572,7.135,23.735,23.735,0,0,1,0,13.221Z" transform="translate(106.417 110.845)" fill="#f2e2d0"/>
        <path id="Path_2645" data-name="Path 2645" d="M0,13.221A23.708,23.708,0,0,1,2.648,6.085,23.436,23.436,0,0,1,7.22,0,23.457,23.457,0,0,1,4.572,7.136,23.748,23.748,0,0,1,0,13.221Z" transform="translate(72.105 132.223)" fill="#f2e2d0"/>
        <path id="Path_2646" data-name="Path 2646" d="M14.095,0A23.739,23.739,0,0,1,7.434,3.683,23.465,23.465,0,0,1,0,5.314,23.434,23.434,0,0,1,6.661,1.632,23.676,23.676,0,0,1,14.095,0Z" transform="translate(81.017 110.329)" fill="#f2e2d0"/>
        <path id="Path_2647" data-name="Path 2647" d="M14.094,0a23.71,23.71,0,0,1-6.66,3.683A23.444,23.444,0,0,1,0,5.315,23.447,23.447,0,0,1,6.66,1.632,23.738,23.738,0,0,1,14.094,0Z" transform="translate(90.284 73.698)" fill="#f2e2d0"/>
        <path id="Path_2648" data-name="Path 2648" d="M14.1,0a23.705,23.705,0,0,1-6.66,3.682A23.45,23.45,0,0,1,0,5.314,23.476,23.476,0,0,1,6.661,1.631,23.711,23.711,0,0,1,14.1,0Z" transform="translate(89.958 146.349)" fill="#f2e2d0"/>
        <path id="Path_2651" data-name="Path 2651" d="M5.175,14.147a23.741,23.741,0,0,1-3.617-6.7A23.463,23.463,0,0,1,0,0,23.463,23.463,0,0,1,3.617,6.7,23.7,23.7,0,0,1,5.175,14.147Z" transform="translate(47.878 99.11)" fill="#f2e2d0"/>
        <path id="Path_2652" data-name="Path 2652" d="M5.175,14.147a23.763,23.763,0,0,1-3.617-6.7A23.464,23.464,0,0,1,0,0,23.462,23.462,0,0,1,3.617,6.7,23.7,23.7,0,0,1,5.175,14.147Z" transform="translate(112.065 90.928)" fill="#f2e2d0"/>
        <path id="Path_2653" data-name="Path 2653" d="M5.175,14.146a23.746,23.746,0,0,1-3.617-6.7A23.469,23.469,0,0,1,0,0,23.463,23.463,0,0,1,3.617,6.7,23.7,23.7,0,0,1,5.175,14.146Z" transform="translate(108.842 164.022)" fill="#f2e2d0"/>
        <path id="Path_2655" data-name="Path 2655" d="M5.175,14.146a23.7,23.7,0,0,1-3.617-6.7A23.437,23.437,0,0,1,0,0,23.461,23.461,0,0,1,3.617,6.7,23.73,23.73,0,0,1,5.175,14.146Z" transform="translate(75.361 87.879)" fill="#f2e2d0"/>
        <path id="Path_2656" data-name="Path 2656" d="M5.175,14.146a23.7,23.7,0,0,1-3.617-6.7A23.47,23.47,0,0,1,0,0,23.462,23.462,0,0,1,3.617,6.7,23.7,23.7,0,0,1,5.175,14.146Z" transform="translate(63.652 61.822)" fill="#f2e2d0"/>
        <path id="Path_2657" data-name="Path 2657" d="M5.175,14.147a23.74,23.74,0,0,1-3.617-6.7A23.466,23.466,0,0,1,0,0,23.462,23.462,0,0,1,3.617,6.7,23.7,23.7,0,0,1,5.175,14.147Z" transform="translate(27.848 39.911)" fill="#f2e2d0"/>
        <path id="Path_2658" data-name="Path 2658" d="M14.094,0a23.71,23.71,0,0,1-6.66,3.683A23.45,23.45,0,0,1,0,5.315,23.432,23.432,0,0,1,6.66,1.632,23.739,23.739,0,0,1,14.094,0Z" transform="translate(88.644 91.181)" fill="#f2e2d0"/>
        <path id="Path_2660" data-name="Path 2660" d="M5.176,14.146a23.7,23.7,0,0,1-3.617-6.7A23.459,23.459,0,0,1,0,0,23.408,23.408,0,0,1,3.617,6.7,23.738,23.738,0,0,1,5.176,14.146Z" transform="translate(55.504 79.963)" fill="#f2e2d0"/>
        <path id="Path_2661" data-name="Path 2661" d="M5.175,14.146a23.76,23.76,0,0,1-3.617-6.7A23.47,23.47,0,0,1,0,0,23.47,23.47,0,0,1,3.617,6.7,23.71,23.71,0,0,1,5.175,14.146Z" transform="translate(0 76.235)" fill="#f2e2d0"/>
        <path id="Path_2663" data-name="Path 2663" d="M5.175,14.146a23.7,23.7,0,0,1-3.617-6.7A23.442,23.442,0,0,1,0,0,23.47,23.47,0,0,1,3.617,6.7,23.738,23.738,0,0,1,5.175,14.146Z" transform="translate(143.178 9.403)" fill="#f2e2d0"/>
        <path id="Path_2664" data-name="Path 2664" d="M14.772.157A23.692,23.692,0,0,1,7.6,2.706a23.455,23.455,0,0,1-7.6.4A23.464,23.464,0,0,1,7.171.557,23.69,23.69,0,0,1,14.772.157Z" transform="translate(162.374 20.472)" fill="#f2e2d0"/>
        <path id="Path_2665" data-name="Path 2665" d="M0,12.956A23.689,23.689,0,0,1,2.9,5.919,23.424,23.424,0,0,1,7.685,0a23.461,23.461,0,0,1-2.9,7.037A23.749,23.749,0,0,1,0,12.956Z" transform="translate(129.237 9.322)" fill="#f2e2d0"/>
        <path id="Path_2666" data-name="Path 2666" d="M0,13.22A23.732,23.732,0,0,1,2.649,6.085,23.42,23.42,0,0,1,7.221,0,23.445,23.445,0,0,1,4.572,7.135,23.686,23.686,0,0,1,0,13.22Z" transform="translate(154.524 29.086)" fill="#f2e2d0"/>
        <path id="Path_2667" data-name="Path 2667" d="M14.095,0A23.713,23.713,0,0,1,7.434,3.683,23.471,23.471,0,0,1,0,5.315,23.437,23.437,0,0,1,6.661,1.632,23.732,23.732,0,0,1,14.095,0Z" transform="translate(238.314 41.563)" fill="#f2e2d0"/>
        <path id="Path_2668" data-name="Path 2668" d="M5.176,14.146a23.7,23.7,0,0,1-3.617-6.7A23.444,23.444,0,0,1,0,0,23.439,23.439,0,0,1,3.617,6.7,23.724,23.724,0,0,1,5.176,14.146Z" transform="translate(106.842 9.897)" fill="#f2e2d0"/>
        <path id="Path_2669" data-name="Path 2669" d="M.838,15.054A23.731,23.731,0,0,1,.011,7.488,23.451,23.451,0,0,1,1.374,0,23.444,23.444,0,0,1,2.2,7.565,23.71,23.71,0,0,1,.838,15.054Z" transform="translate(212.725 29.692)" fill="#f2e2d0"/>
        <path id="Path_2670" data-name="Path 2670" d="M5.175,14.147a23.737,23.737,0,0,1-3.616-6.7A23.438,23.438,0,0,1,0,0,23.463,23.463,0,0,1,3.617,6.7,23.7,23.7,0,0,1,5.175,14.147Z" transform="translate(82.493 0)" fill="#f2e2d0"/>
        <path id="Path_2671" data-name="Path 2671" d="M9.51,11.682a23.755,23.755,0,0,1-5.6-5.149A23.451,23.451,0,0,1,0,0,23.454,23.454,0,0,1,5.6,5.149,23.7,23.7,0,0,1,9.51,11.682Z" transform="translate(184.192 25.263)" fill="#f2e2d0"/>
        <path id="Path_2672" data-name="Path 2672" d="M0,13.22A23.7,23.7,0,0,1,2.648,6.085,23.465,23.465,0,0,1,7.22,0,23.442,23.442,0,0,1,4.572,7.135,23.73,23.73,0,0,1,0,13.22Z" transform="translate(38.683 80.053)" fill="#f2e2d0"/>
        <path id="Path_2673" data-name="Path 2673" d="M0,3.782A23.729,23.729,0,0,1,7.027.859,23.413,23.413,0,0,1,14.6.06,23.462,23.462,0,0,1,7.569,2.983,23.727,23.727,0,0,1,0,3.782Z" transform="translate(92.27 54.09)" fill="#f2e2d0"/>
        <path id="Path_2674" data-name="Path 2674" d="M.072,0A23.72,23.72,0,0,1,2.925,7.056a23.437,23.437,0,0,1,.725,7.577A23.475,23.475,0,0,1,.8,7.577,23.73,23.73,0,0,1,.072,0Z" transform="translate(82.887 25.265)" fill="#f2e2d0"/>
        <path id="Path_2675" data-name="Path 2675" d="M.072,0A23.708,23.708,0,0,1,2.926,7.056a23.469,23.469,0,0,1,.725,7.577A23.441,23.441,0,0,1,.8,7.577,23.726,23.726,0,0,1,.072,0Z" transform="translate(119.028 32.356)" fill="#f2e2d0"/>
        <path id="Path_2676" data-name="Path 2676" d="M.072,0A23.706,23.706,0,0,1,2.926,7.056a23.463,23.463,0,0,1,.725,7.576A23.408,23.408,0,0,1,.8,7.577,23.7,23.7,0,0,1,.072,0Z" transform="translate(127.782 59.549)" fill="#f2e2d0"/>
        <path id="Path_2677" data-name="Path 2677" d="M0,3.782A23.724,23.724,0,0,1,7.028.859,23.435,23.435,0,0,1,14.6.059,23.471,23.471,0,0,1,7.569,2.983,23.721,23.721,0,0,1,0,3.782Z" transform="translate(95.834 36.896)" fill="#f2e2d0"/>
        <path id="Path_2678" data-name="Path 2678" d="M.072,0A23.73,23.73,0,0,1,2.925,7.056a23.434,23.434,0,0,1,.725,7.576A23.459,23.459,0,0,1,.8,7.577,23.727,23.727,0,0,1,.072,0Z" transform="translate(137.887 42.421)" fill="#f2e2d0"/>
        <path id="Path_2679" data-name="Path 2679" d="M8.639,0A23.726,23.726,0,0,1,5.217,6.8,23.455,23.455,0,0,1,0,12.34a23.453,23.453,0,0,1,3.422-6.8A23.72,23.72,0,0,1,8.639,0Z" transform="translate(151.089 45.686)" fill="#f2e2d0"/>
        <path id="Path_2680" data-name="Path 2680" d="M0,13.22A23.732,23.732,0,0,1,2.648,6.085,23.465,23.465,0,0,1,7.22,0,23.453,23.453,0,0,1,4.572,7.135,23.707,23.707,0,0,1,0,13.22Z" transform="translate(36.396 62.867)" fill="#f2e2d0"/>
        <path id="Path_2681" data-name="Path 2681" d="M0,13.22A23.708,23.708,0,0,1,2.648,6.084,23.417,23.417,0,0,1,7.22,0,23.453,23.453,0,0,1,4.571,7.135,23.7,23.7,0,0,1,0,13.22Z" transform="translate(50.241 41.203)" fill="#f2e2d0"/>
        <path id="Path_2682" data-name="Path 2682" d="M0,13.22A23.712,23.712,0,0,1,2.648,6.085,23.437,23.437,0,0,1,7.22,0,23.459,23.459,0,0,1,4.572,7.136,23.727,23.727,0,0,1,0,13.22Z" transform="translate(4.371 101.431)" fill="#f2e2d0"/>
        <path id="Path_2683" data-name="Path 2683" d="M14.095,0A23.739,23.739,0,0,1,7.434,3.683,23.438,23.438,0,0,1,0,5.315,23.45,23.45,0,0,1,6.661,1.632,23.738,23.738,0,0,1,14.095,0Z" transform="translate(9.597 75.158)" fill="#f2e2d0"/>
        <path id="Path_2684" data-name="Path 2684" d="M14.1,0A23.711,23.711,0,0,1,7.434,3.682,23.444,23.444,0,0,1,0,5.314,23.461,23.461,0,0,1,6.661,1.631,23.7,23.7,0,0,1,14.1,0Z" transform="translate(43.973 27.795)" fill="#f2e2d0"/>
        <path id="Path_2685" data-name="Path 2685" d="M14.095,0a23.733,23.733,0,0,1-6.66,3.683A23.478,23.478,0,0,1,0,5.315,23.426,23.426,0,0,1,6.661,1.632,23.682,23.682,0,0,1,14.095,0Z" transform="translate(18.694 93.496)" fill="#f2e2d0"/>
        <path id="Path_2686" data-name="Path 2686" d="M14.095,0A23.71,23.71,0,0,1,7.434,3.682,23.443,23.443,0,0,1,0,5.314,23.47,23.47,0,0,1,6.66,1.631,23.716,23.716,0,0,1,14.095,0Z" transform="translate(22.225 115.557)" fill="#f2e2d0"/>
        <path id="Path_2687" data-name="Path 2687" d="M5.175,14.147a23.735,23.735,0,0,1-3.616-6.7A23.433,23.433,0,0,1,0,0,23.475,23.475,0,0,1,3.617,6.7,23.708,23.708,0,0,1,5.175,14.147Z" transform="translate(190.809 131.698)" fill="#f2e2d0"/>
        <path id="Path_2688" data-name="Path 2688" d="M5.175,14.146a23.7,23.7,0,0,1-3.617-6.7A23.471,23.471,0,0,1,0,0,23.462,23.462,0,0,1,3.617,6.7,23.73,23.73,0,0,1,5.175,14.146Z" transform="translate(214.804 137.326)" fill="#f2e2d0"/>
        <path id="Path_2689" data-name="Path 2689" d="M5.175,14.147a23.765,23.765,0,0,1-3.617-6.7A23.466,23.466,0,0,1,0,0,23.462,23.462,0,0,1,3.617,6.7,23.7,23.7,0,0,1,5.175,14.147Z" transform="translate(166.926 114.45)" fill="#f2e2d0"/>
        <path id="Path_2690" data-name="Path 2690" d="M0,13.221A23.72,23.72,0,0,1,2.648,6.085,23.459,23.459,0,0,1,7.22,0,23.449,23.449,0,0,1,4.572,7.136,23.731,23.731,0,0,1,0,13.221Z" transform="translate(205.609 118.268)" fill="#f2e2d0"/>
        <path id="Path_2691" data-name="Path 2691" d="M0,13.22A23.722,23.722,0,0,1,2.648,6.084,23.417,23.417,0,0,1,7.22,0,23.453,23.453,0,0,1,4.572,7.135,23.729,23.729,0,0,1,0,13.22Z" transform="translate(171.297 139.647)" fill="#f2e2d0"/>
        <path id="Path_2692" data-name="Path 2692" d="M14.095,0A23.715,23.715,0,0,1,7.434,3.683,23.443,23.443,0,0,1,0,5.315,23.462,23.462,0,0,1,6.661,1.632,23.732,23.732,0,0,1,14.095,0Z" transform="translate(180.209 117.752)" fill="#f2e2d0"/>
        <path id="Path_2693" data-name="Path 2693" d="M14.1,0A23.754,23.754,0,0,1,7.434,3.683,23.47,23.47,0,0,1,0,5.314,23.442,23.442,0,0,1,6.66,1.632,23.686,23.686,0,0,1,14.1,0Z" transform="translate(189.989 157.434)" fill="#f2e2d0"/>
        <path id="Path_2694" data-name="Path 2694" d="M5.175,14.147a23.767,23.767,0,0,1-3.617-6.7A23.472,23.472,0,0,1,0,0,23.462,23.462,0,0,1,3.617,6.7,23.7,23.7,0,0,1,5.175,14.147Z" transform="translate(240.705 112.367)" fill="#f2e2d0"/>
        <path id="Path_2695" data-name="Path 2695" d="M5.175,14.146a23.714,23.714,0,0,1-3.617-6.7A23.464,23.464,0,0,1,0,0,23.443,23.443,0,0,1,3.617,6.7,23.709,23.709,0,0,1,5.175,14.146Z" transform="translate(264.7 117.995)" fill="#f2e2d0"/>
        <path id="Path_2696" data-name="Path 2696" d="M5.175,14.146a23.7,23.7,0,0,1-3.617-6.7A23.471,23.471,0,0,1,0,0,23.462,23.462,0,0,1,3.617,6.7,23.7,23.7,0,0,1,5.175,14.146Z" transform="translate(216.822 95.119)" fill="#f2e2d0"/>
        <path id="Path_2697" data-name="Path 2697" d="M5.175,14.146a23.765,23.765,0,0,1-3.617-6.7A23.464,23.464,0,0,1,0,0,23.443,23.443,0,0,1,3.617,6.7,23.7,23.7,0,0,1,5.175,14.146Z" transform="translate(149.928 114.748)" fill="#f2e2d0"/>
        <path id="Path_2698" data-name="Path 2698" d="M0,13.221A23.712,23.712,0,0,1,2.648,6.085,23.438,23.438,0,0,1,7.22,0,23.459,23.459,0,0,1,4.572,7.136,23.748,23.748,0,0,1,0,13.221Z" transform="translate(255.505 98.937)" fill="#f2e2d0"/>
        <path id="Path_2699" data-name="Path 2699" d="M0,13.221A23.711,23.711,0,0,1,2.648,6.085,23.455,23.455,0,0,1,7.219,0,23.433,23.433,0,0,1,4.571,7.136,23.722,23.722,0,0,1,0,13.221Z" transform="translate(211.914 159.877)" fill="#f2e2d0"/>
        <path id="Path_2700" data-name="Path 2700" d="M0,13.221A23.709,23.709,0,0,1,2.648,6.085,23.438,23.438,0,0,1,7.22,0,23.484,23.484,0,0,1,4.572,7.136,23.748,23.748,0,0,1,0,13.221Z" transform="translate(221.193 120.315)" fill="#f2e2d0"/>
        <path id="Path_2701" data-name="Path 2701" d="M14.095,0A23.727,23.727,0,0,1,7.434,3.683,23.47,23.47,0,0,1,0,5.315,23.437,23.437,0,0,1,6.661,1.632,23.7,23.7,0,0,1,14.095,0Z" transform="translate(230.105 98.421)" fill="#f2e2d0"/>
        <path id="Path_2702" data-name="Path 2702" d="M14.094,0a23.709,23.709,0,0,1-6.66,3.683A23.444,23.444,0,0,1,0,5.315,23.431,23.431,0,0,1,6.66,1.632,23.737,23.737,0,0,1,14.094,0Z" transform="translate(239.372 61.79)" fill="#f2e2d0"/>
        <path id="Path_2703" data-name="Path 2703" d="M14.1,0a23.735,23.735,0,0,1-6.66,3.683A23.5,23.5,0,0,1,0,5.315,23.427,23.427,0,0,1,6.661,1.632,23.682,23.682,0,0,1,14.1,0Z" transform="translate(239.046 134.441)" fill="#f2e2d0"/>
        <path id="Path_2704" data-name="Path 2704" d="M14.1,0a23.71,23.71,0,0,1-6.66,3.683A23.45,23.45,0,0,1,0,5.315,23.453,23.453,0,0,1,6.661,1.632,23.739,23.739,0,0,1,14.1,0Z" transform="translate(229.284 168.74)" fill="#f2e2d0"/>
        <path id="Path_2705" data-name="Path 2705" d="M5.175,14.146a23.719,23.719,0,0,1-3.616-6.7A23.442,23.442,0,0,1,0,0,23.462,23.462,0,0,1,3.617,6.7,23.7,23.7,0,0,1,5.175,14.146Z" transform="translate(151.18 138.048)" fill="#f2e2d0"/>
        <path id="Path_2706" data-name="Path 2706" d="M5.175,14.147a23.712,23.712,0,0,1-3.617-6.7A23.464,23.464,0,0,1,0,0,23.461,23.461,0,0,1,3.617,6.7,23.7,23.7,0,0,1,5.175,14.147Z" transform="translate(196.966 87.202)" fill="#f2e2d0"/>
        <path id="Path_2707" data-name="Path 2707" d="M5.175,14.147a23.767,23.767,0,0,1-3.617-6.7A23.466,23.466,0,0,1,0,0,23.462,23.462,0,0,1,3.617,6.7,23.7,23.7,0,0,1,5.175,14.147Z" transform="translate(261.153 79.02)" fill="#f2e2d0"/>
        <path id="Path_2708" data-name="Path 2708" d="M5.175,14.147a23.714,23.714,0,0,1-3.617-6.7A23.463,23.463,0,0,1,0,0,23.461,23.461,0,0,1,3.617,6.7,23.7,23.7,0,0,1,5.175,14.147Z" transform="translate(257.93 152.114)" fill="#f2e2d0"/>
        <path id="Path_2709" data-name="Path 2709" d="M5.175,14.146a23.694,23.694,0,0,1-3.617-6.7A23.47,23.47,0,0,1,0,0,23.47,23.47,0,0,1,3.617,6.7,23.738,23.738,0,0,1,5.175,14.146Z" transform="translate(130.125 122.296)" fill="#f2e2d0"/>
        <path id="Path_2710" data-name="Path 2710" d="M5.176,14.147a23.716,23.716,0,0,1-3.617-6.7A23.438,23.438,0,0,1,0,0,23.44,23.44,0,0,1,3.618,6.7,23.761,23.761,0,0,1,5.176,14.147Z" transform="translate(224.448 75.971)" fill="#f2e2d0"/>
        <path id="Path_2711" data-name="Path 2711" d="M5.175,14.147a23.714,23.714,0,0,1-3.617-6.7A23.468,23.468,0,0,1,0,0,23.463,23.463,0,0,1,3.617,6.7,23.732,23.732,0,0,1,5.175,14.147Z" transform="translate(212.74 49.914)" fill="#f2e2d0"/>
        <path id="Path_2712" data-name="Path 2712" d="M14.1,0A23.7,23.7,0,0,1,7.434,3.683,23.438,23.438,0,0,1,0,5.315,23.476,23.476,0,0,1,6.661,1.632,23.738,23.738,0,0,1,14.1,0Z" transform="translate(237.731 79.273)" fill="#f2e2d0"/>
        <path id="Path_2713" data-name="Path 2713" d="M14.095,0A23.715,23.715,0,0,1,7.434,3.683,23.438,23.438,0,0,1,0,5.315,23.476,23.476,0,0,1,6.661,1.632,23.738,23.738,0,0,1,14.095,0Z" transform="translate(130.792 94.18)" fill="#f2e2d0"/>
        <path id="Path_2714" data-name="Path 2714" d="M5.176,14.146a23.7,23.7,0,0,1-3.617-6.7A23.444,23.444,0,0,1,0,0,23.421,23.421,0,0,1,3.617,6.7,23.737,23.737,0,0,1,5.176,14.146Z" transform="translate(204.592 68.055)" fill="#f2e2d0"/>
        <path id="Path_2715" data-name="Path 2715" d="M5.175,14.146a23.748,23.748,0,0,1-3.617-6.7A23.472,23.472,0,0,1,0,0,23.461,23.461,0,0,1,3.617,6.7,23.7,23.7,0,0,1,5.175,14.146Z" transform="translate(149.088 64.327)" fill="#f2e2d0"/>
        <path id="Path_2716" data-name="Path 2716" d="M5.175,14.147a23.716,23.716,0,0,1-3.617-6.7A23.466,23.466,0,0,1,0,0,23.462,23.462,0,0,1,3.617,6.7,23.7,23.7,0,0,1,5.175,14.147Z" transform="translate(233.991 146.326)" fill="#f2e2d0"/>
        <path id="Path_2717" data-name="Path 2717" d="M5.176,14.146a23.7,23.7,0,0,1-3.617-6.7A23.442,23.442,0,0,1,0,0,23.446,23.446,0,0,1,3.617,6.7,23.736,23.736,0,0,1,5.176,14.146Z" transform="translate(159.667 172.774)" fill="#f2e2d0"/>
        <path id="Path_2718" data-name="Path 2718" d="M5.175,14.147a23.715,23.715,0,0,1-3.617-6.7A23.463,23.463,0,0,1,0,0,23.464,23.464,0,0,1,3.617,6.7,23.7,23.7,0,0,1,5.175,14.147Z" transform="translate(183.662 178.401)" fill="#f2e2d0"/>
        <path id="Path_2719" data-name="Path 2719" d="M5.175,14.146a23.71,23.71,0,0,1-3.616-6.7A23.433,23.433,0,0,1,0,0,23.469,23.469,0,0,1,3.617,6.7,23.711,23.711,0,0,1,5.175,14.146Z" transform="translate(135.784 155.526)" fill="#f2e2d0"/>
        <path id="Path_2720" data-name="Path 2720" d="M0,13.22A23.7,23.7,0,0,1,2.648,6.085,23.443,23.443,0,0,1,7.22,0,23.442,23.442,0,0,1,4.572,7.135,23.73,23.73,0,0,1,0,13.22Z" transform="translate(174.467 159.344)" fill="#f2e2d0"/>
        <path id="Path_2721" data-name="Path 2721" d="M0,13.22A23.7,23.7,0,0,1,2.648,6.085,23.438,23.438,0,0,1,7.22,0,23.442,23.442,0,0,1,4.572,7.135,23.732,23.732,0,0,1,0,13.22Z" transform="translate(140.155 180.722)" fill="#f2e2d0"/>
        <path id="Path_2722" data-name="Path 2722" d="M14.1,0A23.711,23.711,0,0,1,7.434,3.682,23.438,23.438,0,0,1,0,5.314,23.432,23.432,0,0,1,6.661,1.632,23.683,23.683,0,0,1,14.1,0Z" transform="translate(149.067 158.828)" fill="#f2e2d0"/>
        <path id="Path_2723" data-name="Path 2723" d="M14.095,0A23.714,23.714,0,0,1,7.434,3.683,23.47,23.47,0,0,1,0,5.315,23.437,23.437,0,0,1,6.661,1.632,23.732,23.732,0,0,1,14.095,0Z" transform="translate(158.847 198.509)" fill="#f2e2d0"/>
        <path id="Path_2724" data-name="Path 2724" d="M5.175,14.146a23.732,23.732,0,0,1-3.616-6.7A23.444,23.444,0,0,1,0,0,23.47,23.47,0,0,1,3.617,6.7,23.708,23.708,0,0,1,5.175,14.146Z" transform="translate(118.786 155.823)" fill="#f2e2d0"/>
        <path id="Path_2725" data-name="Path 2725" d="M0,13.22A23.719,23.719,0,0,1,2.648,6.084,23.416,23.416,0,0,1,7.22,0,23.453,23.453,0,0,1,4.572,7.135,23.733,23.733,0,0,1,0,13.22Z" transform="translate(180.772 200.953)" fill="#f2e2d0"/>
        <path id="Path_2726" data-name="Path 2726" d="M14.095,0a23.706,23.706,0,0,1-6.66,3.682A23.45,23.45,0,0,1,0,5.314,23.476,23.476,0,0,1,6.661,1.631,23.708,23.708,0,0,1,14.095,0Z" transform="translate(198.142 209.816)" fill="#f2e2d0"/>
        <path id="Path_2727" data-name="Path 2727" d="M5.176,14.147a23.713,23.713,0,0,1-3.617-6.7A23.438,23.438,0,0,1,0,0,23.438,23.438,0,0,1,3.617,6.7,23.732,23.732,0,0,1,5.176,14.147Z" transform="translate(120.038 179.123)" fill="#f2e2d0"/>
        <path id="Path_2728" data-name="Path 2728" d="M5.175,14.147a23.765,23.765,0,0,1-3.617-6.7A23.466,23.466,0,0,1,0,0,23.461,23.461,0,0,1,3.617,6.7,23.709,23.709,0,0,1,5.175,14.147Z" transform="translate(226.788 193.189)" fill="#f2e2d0"/>
        <path id="Path_2729" data-name="Path 2729" d="M5.175,14.147a23.766,23.766,0,0,1-3.617-6.7A23.459,23.459,0,0,1,0,0,23.475,23.475,0,0,1,3.617,6.7,23.71,23.71,0,0,1,5.175,14.147Z" transform="translate(202.849 187.401)" fill="#f2e2d0"/>
        <path id="Path_2730" data-name="Path 2730" d="M0,13.22A23.706,23.706,0,0,1,2.648,6.085,23.46,23.46,0,0,1,7.22,0,23.443,23.443,0,0,1,4.572,7.135,23.712,23.712,0,0,1,0,13.22Z" transform="translate(187.771 68.145)" fill="#f2e2d0"/>
        <path id="Path_2731" data-name="Path 2731" d="M0,13.22A23.7,23.7,0,0,1,2.648,6.085,23.465,23.465,0,0,1,7.22,0,23.443,23.443,0,0,1,4.572,7.135,23.692,23.692,0,0,1,0,13.22Z" transform="translate(185.484 50.959)" fill="#f2e2d0"/>
        <path id="Path_2732" data-name="Path 2732" d="M0,13.221A23.708,23.708,0,0,1,2.648,6.085,23.437,23.437,0,0,1,7.22,0,23.458,23.458,0,0,1,4.572,7.136,23.748,23.748,0,0,1,0,13.221Z" transform="translate(153.459 89.523)" fill="#f2e2d0"/>
        <path id="Path_2733" data-name="Path 2733" d="M14.1,0A23.715,23.715,0,0,1,7.434,3.683,23.438,23.438,0,0,1,0,5.315,23.439,23.439,0,0,1,6.661,1.632,23.739,23.739,0,0,1,14.1,0Z" transform="translate(158.685 63.25)" fill="#f2e2d0"/>
        <path id="Path_2734" data-name="Path 2734" d="M14.095,0a23.709,23.709,0,0,1-6.66,3.683A23.478,23.478,0,0,1,0,5.315,23.45,23.45,0,0,1,6.661,1.632,23.738,23.738,0,0,1,14.095,0Z" transform="translate(167.782 81.588)" fill="#f2e2d0"/>
        <path id="Path_2735" data-name="Path 2735" d="M14.094,0a23.734,23.734,0,0,1-6.66,3.683A23.469,23.469,0,0,1,0,5.314,23.443,23.443,0,0,1,6.66,1.632,23.689,23.689,0,0,1,14.094,0Z" transform="translate(171.313 103.649)" fill="#f2e2d0"/>
      </g>
    </g>
    <g id="camera" transform="translate(853.706 137.278)">
      <path id="Path_2628" data-name="Path 2628" d="M469.954,549.976c-3.272-6.147-6.1-12.506-9.042-18.815-1.618-3.473-3.273-6.929-5.01-10.344-1.853-3.643-3.954-7.173-5.469-10.978a70.516,70.516,0,0,1-4.873-23.128c-.319-8.345,1.556-16.485,3.246-24.6a112.42,112.42,0,0,0,2.683-23.582,99.751,99.751,0,0,0-2.741-23.1,92.78,92.78,0,0,0-7.313-19.3c-2.03-4.069-4.588-8.068-8.7-10.286a20.831,20.831,0,0,0-6.8-2.134c-1.507-.229-3.018-.322-4.536-.436-2.179-.164-4.333-.556-6.49-.895a48.24,48.24,0,0,0-5.906-.659,39.876,39.876,0,0,0-5.768.319c-3.779.428-7.515,1.192-11.247,1.9-.717.137-1.436.272-2.156.4,0-.064,0-.128-.008-.2-.174-1.91-2.577-3.507-3.972-4.514a55.815,55.815,0,0,0-6.8-3.9,28.491,28.491,0,0,0-5.5-2.516,3.586,3.586,0,0,0-3.794,1.28c-1,1.315-.7,3-.571,4.53.058.717.128,1.442.229,2.163a19.409,19.409,0,0,0-2.291-2.028,3.287,3.287,0,0,0-1.033-.568q-1.088-2.395-2.4-4.68a58.775,58.775,0,0,0-4.845-7.151,27.615,27.615,0,0,0-6.256-6.145c-5.366-3.55-11.761-4.839-18.084-5.244a35.86,35.86,0,0,0-18.09,3.207c-10.064,4.88-17.3,14.022-25.671,21.167a33.967,33.967,0,0,1-11.553,6.283c-4.526,1.485-9.593,2.49-12.554,6.568a13.065,13.065,0,0,0-2.491,6.073c-.285,2.254-.085,4.543-.146,6.808-.107,3.98-.4,7.943-.431,11.929-.033,4.574.018,9.151.179,13.722.064,1.811.143,3.624.28,5.431.151,2,.433,3.963.48,5.969.071,2.993.053,6.084,1.562,8.768a9.6,9.6,0,0,0,5.7,4.724,6.6,6.6,0,0,0,3.2-.009c-2.227,1.815-4.49,3.588-6.607,5.533a36.5,36.5,0,0,0-8.62,11.363c-2.225,4.756-4.289,9.585-6.483,14.355a70.152,70.152,0,0,1-6.408,11.617c-3.129,4.39-6.852,8.3-10.044,12.645-.444.6.564,1.181,1,.586,2.807-3.8,6.046-7.25,8.892-11.019a63.875,63.875,0,0,0,6.727-11.31c2.235-4.709,4.294-9.5,6.47-14.234a42.646,42.646,0,0,1,3.473-6.505,36.68,36.68,0,0,1,4.647-5.413c3.546-3.459,7.609-6.308,11.3-9.6a.534.534,0,0,0,.109-.751,11.412,11.412,0,0,0,2.722-6.135,30.908,30.908,0,0,0-.5-9.076c-.435-2.81-.706-5.645-.883-8.483a148.37,148.37,0,0,1,.008-17.557c.01-.184.022-.369.033-.553a2,2,0,0,0,1.486.907,4.183,4.183,0,0,0,2.819-1.606c1.069-1.308,1.321-3.193,1.553-4.805a20.188,20.188,0,0,0-.212-8.356,11.177,11.177,0,0,0-1.524-3.546c2.482-.953,5.249,1.97,6.708,3.665a18.171,18.171,0,0,1,3.92,6.246c.154.5.281,1.011.386,1.525a20.368,20.368,0,0,0-.306,4.4c.093,2,.4,3.987.65,5.974.036.288.066.577.094.866-.109,2.917-.281,5.834-.308,8.751-.043,4.7.084,9.836,2.042,14.195,1.73,3.851,5.228,6.446,8.962,8.189a48.268,48.268,0,0,0,7.277,2.628,41.763,41.763,0,0,0,8.984,1.684,33.125,33.125,0,0,0,9.362-.82,69.457,69.457,0,0,0,9.194-3.237,77.343,77.343,0,0,0,8.182-3.489,29.6,29.6,0,0,0,7.2-5.369,43.749,43.749,0,0,0,3.875-4.411.7.7,0,0,0,.6-.176c2.575-2.236,4.991-4.682,7.357-7.17q.518-.465,1.041-.923a43.388,43.388,0,0,1,9.723-6.942,6.469,6.469,0,0,1,3.572-.534,19.551,19.551,0,0,0-4.762,4.456,11.281,11.281,0,0,0-2.6,6c-.126,1.59.592,3.234,2.448,2.832a5.47,5.47,0,0,0,1.662-.691q-.339.422-.669.851a63.157,63.157,0,0,1-5.609,6.289.614.614,0,0,0-.487.225q-.865.966-1.733,1.933c-2.576,2.453-5.224,4.838-7.727,7.343-4.607,4.609-9.184,9.24-14.619,12.89a45.179,45.179,0,0,1-9.219,5.048,53.3,53.3,0,0,1-8.139,2.094c-3.408.677-6.84,1.245-10.228,2.026a27.044,27.044,0,0,0-8.124,2.884c-.658.4-.239,1.546.542,1.286,8.766-2.911,18.174-3.23,26.794-6.637,8.713-3.444,15.943-9.566,22.5-16.119,2.727-2.725,5.35-5.55,7.937-8.407-1.452,3.457-2.709,6.988-4.122,10.471-.981,2.417-2.184,4.725-3.215,7.117-.889,2.063-1.691,4.166-2.669,6.19-.176.365-.358.73-.547,1.089a20.661,20.661,0,0,1-1.771,2.162,18.973,18.973,0,0,1-4.1,3.2c-1.1.5-2.245.931-3.37,1.343-4.613,1.69-9.1,3.625-13.655,5.466q-2.778,1.123-5.564,2.227a55.5,55.5,0,0,0-11.838,4.9c-.8.473-.1,1.578.712,1.219,3.783-1.67,7.622-3.211,11.464-4.743,2.454-.765,4.928-1.468,7.353-2.241a61.573,61.573,0,0,0,9.081-3.526q2.087-1.053,4.167-2.125c.851-.439,1.693-.894,2.51-1.387a12.758,12.758,0,0,0,5.737-4.9c.166-.281.325-.566.48-.853A38.849,38.849,0,0,0,365,464.047a129.858,129.858,0,0,0,5.6-13.2c-.473,3.267-1.029,6.522-1.631,9.764-.989,5.326-2.02,10.781-4.08,15.815a17.675,17.675,0,0,1-7.212,8.915c-1.47.874-3.03,1.582-4.565,2.33q-.956.466-1.913.929a.709.709,0,0,0-.751-.042c-2.366,1.156-4.68,2.412-6.993,3.671-6.173,2.8-12.411,5.447-18.658,8.073a.709.709,0,0,0,.377,1.366c4.64-.888,9.019-2.988,13.2-5.123,1.936-.989,3.845-2.03,5.755-3.07q1.8-.806,3.6-1.62c-4.429,5.546-8.755,11.222-13.976,16.044s-11.647,8.083-18.113,10.895c-4.872,2.119-9.917,3.805-14.785,5.928a123.929,123.929,0,0,0-17.116,8.651c-7.207,4.578-13.518,10.388-19.474,16.468-.636.649.361,1.648,1,1A113.412,113.412,0,0,1,283,535.533a108.946,108.946,0,0,1,16.668-8.761c11.182-4.936,23.422-8.219,33.049-16.095,6.963-5.7,12.237-13.213,17.887-20.152,2.365-1.109,4.707-2.263,6.987-3.51a18.119,18.119,0,0,0,7.685-8.037c2.457-4.941,3.594-10.48,4.648-15.86.59-3.009,1.134-6.032,1.614-9.065a.608.608,0,0,0,.364.237A52.1,52.1,0,0,0,388,455.385a41.523,41.523,0,0,0,5.083-.718c1.735-.116,3.634-.371,4.9-1.45,1.508-1.282,2.127-3.418,2.475-5.291a29.991,29.991,0,0,0,.449-5.95c2.567,1.8,4.686,4.167,4.745,7.513a12.536,12.536,0,0,1-1.346,5.231c-.829,1.895-1.744,3.75-2.532,5.663a114.143,114.143,0,0,0-4.91,13.288,37.463,37.463,0,0,0-.947,12.139,45.161,45.161,0,0,0,1.9,11.637c1.069,3.235,2.955,6.2,4.545,9.2a96.6,96.6,0,0,1,7.435,16.783c2.492,8.131,3.079,16.658,3,25.121a.631.631,0,0,0,1.262,0,87.346,87.346,0,0,0-2.348-23.207,82.813,82.813,0,0,0-6.945-17c-1.614-3.115-3.469-6.156-4.916-9.352a34.593,34.593,0,0,1-2.459-11.563,39.222,39.222,0,0,1,.562-12.469c1.126-4.576,3.094-8.917,4.8-13.3.912-2.347,2.065-4.586,3.043-6.9a12.46,12.46,0,0,0,1.23-5.79c-.3-4.085-3.191-6.856-6.488-8.9a.66.66,0,0,0-.565-.054.572.572,0,0,0-.457-.43,13.434,13.434,0,0,0-5.945.159,14.221,14.221,0,0,0-4.148,2.315c-2.52,1.886-4.744,4.263-7.558,5.728a7.659,7.659,0,0,1-4.209.935l-.026,0c.125-.047.249-.1.371-.155a9.208,9.208,0,0,0,3.747-3.223c.969-1.432,1.817-3.371,1.41-5.133a2.935,2.935,0,0,0-2.853-2.28,38.352,38.352,0,0,1,4.457-4.668,28.549,28.549,0,0,1,4.819-3.874,11.888,11.888,0,0,1,5.759-1.106c2.493-.009,5-.015,7.491.1a18.662,18.662,0,0,1,6.452,1.181,32.1,32.1,0,0,1,7.476,4.565,12.812,12.812,0,0,0,4.595,4.183.7.7,0,0,0,.848-1.1,48.23,48.23,0,0,0-4.547-4.15c-1.572-2.188-2.862-4.68-4.713-6.554a13.262,13.262,0,0,0-6.062-3.276,35.6,35.6,0,0,0-4.18-.908q-.96-.152-1.926-.259a4.784,4.784,0,0,0-1.733-.1c-.023.007-.043.017-.064.026a.694.694,0,0,0-.188-.027,11.6,11.6,0,0,0-2.813.339c-1.508.384-2.339,1.432-3.547,2.324a22.184,22.184,0,0,1-7.327,3.636,9.544,9.544,0,0,0,2.9-6.046L388,422.2a2.31,2.31,0,0,0-.622-2.912q-.146-.307-.329-.61c2.915-3.192,5.849-7.608,10.531-7.765a87.194,87.194,0,0,1,12.9.582,46.752,46.752,0,0,1,6.034,1.037,7.526,7.526,0,0,1,2.646,1.352,63.066,63.066,0,0,1,6.77,5.965c1.09,1.06,2.164,2.136,3.213,3.235.344.36.686.722,1.017,1.092a2.229,2.229,0,0,0,.617.73.707.707,0,0,0,.935-1.032c0-.006-.008-.01-.024-.036s-.022-.031-.023-.033c-.035-.049-.071-.1-.109-.148-.07-.093-.143-.184-.218-.273-.052-.069-.1-.137-.153-.206l-.9-1.264a2.824,2.824,0,0,0-.2-.3,4.2,4.2,0,0,0-.355-.71,28.091,28.091,0,0,0-4.528-5.34,30.775,30.775,0,0,0-7.732-5.669,36.712,36.712,0,0,0-6.376-2.108c-3.954-1.1-8.225-2.849-12.381-1.907a.621.621,0,0,0-.067.022.648.648,0,0,0-.2.036c-4.657,1.584-9.133,3.639-13.734,5.369,1.7-2.3,2.77-5.219.98-7.774a2.213,2.213,0,0,0-1.547-.912,49.005,49.005,0,0,1,5.329-4.146,15.605,15.605,0,0,1,7.649-2.778c2.5-.178,5.014-.163,7.515-.112,2.518.05,5.043.149,7.551.395a30.69,30.69,0,0,1,6.579,1.081,22.006,22.006,0,0,1,5.651,2.712,43.407,43.407,0,0,1,4.922,4.117c1.774,1.668,3.481,3.414,5.1,5.237l.24.274q1.075,1.488,2.083,3.022a.722.722,0,0,0,.79.322c1.321-.354.04-1.963-.368-2.5-.466-.609-.955-1.2-1.459-1.781a57.478,57.478,0,0,0-5.115-6.182c-2.523-2.618-5.472-5.169-8.956-6.379-3.292-1.144-6.869-1.165-10.3-1.537-4.339-.47-8.7-.99-13.062-.505-2.235.248-4.43.668-6.681.781a39.971,39.971,0,0,1-6.725-.224,18.4,18.4,0,0,1-6.1-1.439,7.122,7.122,0,0,1-2.793-2.479,7.032,7.032,0,0,0,2.621,1,27.342,27.342,0,0,0,4.272.144,9.438,9.438,0,0,0,3.868-.761c1.634-.692,4.858-2.692,3.179-4.831a2.559,2.559,0,0,0-.228-.25c2.935-.474,5.849-1.113,8.774-1.629a48.249,48.249,0,0,1,11.474-.985c4.137.275,8.179,1.306,12.32,1.564,4.861.3,9.751,1.377,13.258,4.986,3.791,3.9,5.838,9.41,7.936,14.321a82.3,82.3,0,0,1,5.868,22.633,100.1,100.1,0,0,1,.128,23.245c-.969,8.42-3.343,16.589-4.581,24.963a63.26,63.26,0,0,0-.726,12.474,75.4,75.4,0,0,0,1.548,11.558,68.081,68.081,0,0,0,3.452,11.571c1.505,3.726,3.534,7.192,5.357,10.765,3.388,6.644,6.411,13.459,9.6,20.2,1.471,3.112,3,6.2,4.613,9.236C469.152,551.511,470.387,550.789,469.954,549.976ZM370.62,375.769c.861-1.967,2.933-1.108,4.368-.471,1.833.813,3.6,1.765,5.361,2.722a35.592,35.592,0,0,1,5.878,3.649,8.148,8.148,0,0,1,2.024,2.129c.248.449.2.674-.073.814-.506.074-1.014.141-1.523.2-.685.074-1.373.106-2.062.128-.778-.018-1.555-.044-2.31,0-1.486.088-2.962.286-4.447.369a11.364,11.364,0,0,1-5.742-1.215q-.442-.511-.894-1.013a18.707,18.707,0,0,1-.371-1.933c-.135-.88-.215-1.768-.277-2.655A6.053,6.053,0,0,1,370.62,375.769Zm4.41,11.891-.1-.121.211-.008C375.105,387.573,375.068,387.616,375.03,387.66Zm-14.163-15.7a54.327,54.327,0,0,1,4.046,7.463,1.29,1.29,0,0,0,.056.478,1.41,1.41,0,0,0,.405.589,52.949,52.949,0,0,1,3.951,25.342c-.015.164-.034.327-.05.49-.662-2.036-1.3-4.08-1.938-6.124-2.016-6.456-4-12.921-6-19.382-1.481-4.787-2.924-9.592-4.507-14.347A53.579,53.579,0,0,1,360.868,371.956Zm18.265,36.228a4.092,4.092,0,0,0-1.8,1.541,11.947,11.947,0,0,0-1.823,4.995c-.195,1.468-.287,2.953-.4,4.43q-2.892,3.068-5.822,6.1-.808.838-1.616,1.684-1.738,1.576-3.409,3.224a36.332,36.332,0,0,0,1.868-3.867c1.43-3.483,2.19-7.18,3.531-10.69a16.507,16.507,0,0,1,2.379-4.348c1.144-1.452,3.027-3.556,5.011-3.447A8.537,8.537,0,0,1,379.133,408.185ZM354.8,364.811s0,0,0,0l0,0-.021-.023C354.767,364.767,354.773,364.755,354.8,364.811Zm-27.132-7.952a46.136,46.136,0,0,1,10.1.225,34.588,34.588,0,0,1,9.8,2.46,23.957,23.957,0,0,1,7.122,4.595.8.8,0,0,0-.017.434.641.641,0,0,0,.044.143c-.127-.148,0-.019.089.27.1.334.2.669.3,1q.53,1.814,1.052,3.63,1.673,5.8,3.331,11.613,1.769,6.184,3.535,12.369A50,50,0,0,0,360,388.475a28.252,28.252,0,0,0-8.806-8.669,30.425,30.425,0,0,0-12.972-4.088,35.971,35.971,0,0,0-14.3,1.323c-2.181.723-4.281,1.68-6.38,2.607a30.63,30.63,0,0,0-6.484,3.727,34.384,34.384,0,0,0-12.832,22.781,42.435,42.435,0,0,0,1,13.483A49.155,49.155,0,0,0,304.9,434.29c.809,1.4,1.662,2.791,2.594,4.126a27.162,27.162,0,0,1-4.707-6.588,38.907,38.907,0,0,1-2.041-4.9c-.611-1.72-1.47-3.338-2.086-5.055a20.584,20.584,0,0,1-.866-4.911c.1-2.586.157-5.173.007-7.755a29.464,29.464,0,0,0-.417-3.7,46.012,46.012,0,0,1,1.709-6.35c1.3-3.942,2.681-7.818,3.706-11.845a100.409,100.409,0,0,1,9.333-24.247.653.653,0,0,0,.082-.41A33.324,33.324,0,0,1,327.664,356.859Zm-57.74,96.753c-2.576-1.841-3.677-4.765-3.895-7.819-.189-2.656-.217-5.3-.482-7.948-.381-3.811-.445-7.665-.516-11.492-.085-4.554-.1-9.112.024-13.666.045-1.684.114-3.368.24-5.048.186-2.478.038-4.949.136-7.427a11.605,11.605,0,0,1,7.922-10.781c2.356-.927,4.822-1.533,7.207-2.378a42.964,42.964,0,0,0,6.579-3c4.131-2.314,7.607-5.89,11.008-9.127,2.707-2.576,5.376-5.22,8.2-7.682-3.718,4.174-7.223,8.545-11.215,12.466a41.2,41.2,0,0,1-8.99,6.933c-3.349,1.829-6.982,2.522-10.565,3.706a12.636,12.636,0,0,0-7.71,6.274c-1.645,3.385-1.767,7.379-1.685,11.071.1,4.555.425,9.1.494,13.658.078,5.129.078,10.261.316,15.387.122,2.622-.081,5.2-.058,7.823a10.44,10.44,0,0,0,1.928,6.442,9.584,9.584,0,0,0,5.835,3.624A5.839,5.839,0,0,1,269.924,453.612ZM285.2,406.424a11.56,11.56,0,0,1-.682,2.669,3.05,3.05,0,0,1-.86,1.191c-.249.2-.91.722-1.233.711-.57-.019-.938-1.279-1.075-1.689-.118-.353-.22-.714-.307-1.078.3-3.872.751-7.736,1.424-11.558l.012-.065a6.78,6.78,0,0,1,1.261-1.723l.058.085a12.562,12.562,0,0,1,1.848,6.911A26.109,26.109,0,0,1,285.2,406.424Zm7.729-9.333c-1.9-2.28-5.134-5.613-8.47-4.331a4.635,4.635,0,0,0-.6.283c-.031-.019-.06-.041-.091-.058-1.513-.86-2.167.751-2.4,1.947q-.132.679-.252,1.361a17.389,17.389,0,0,0-1.017,2.888,19.7,19.7,0,0,0-.461,9.144q-.061.783-.116,1.565a153.661,153.661,0,0,0-.253,17.67c.13,2.855.353,5.708.714,8.544.387,3.043,1.052,6.071.946,9.156-.1,3.041-1.053,6.055-3.5,8.015-.051.041-.1.08-.155.12a8.031,8.031,0,0,1-8.057-4.23,11.987,11.987,0,0,1-.937-6.24c.093-2.271.1-4.487,0-6.759-.209-4.871-.213-9.748-.283-14.623-.064-4.433-.344-8.85-.478-13.279-.107-3.545-.111-7.438,1.381-10.733,1.484-3.278,4.416-5.111,7.742-6.117,3.39-1.024,6.774-1.8,9.925-3.481a40.239,40.239,0,0,0,8.48-6.285c4.976-4.673,9.138-10.11,13.757-15.119a107.782,107.782,0,0,0-6.844,18.637c-.545,1.991-.995,4.006-1.6,5.979-.67,2.171-1.445,4.308-2.177,6.458-.563,1.655-1.134,3.347-1.593,5.064A21.414,21.414,0,0,0,292.932,397.091Zm33.848,53.72c-5.974.3-12.059-1.263-17.563-3.514-3.985-1.63-7.91-4.076-9.786-8.112-2.067-4.448-2.014-9.881-1.925-14.678q.016-.858.046-1.717c.551,1.409,1.241,2.764,1.766,4.183a51.4,51.4,0,0,0,2.041,5.035,27.787,27.787,0,0,0,6.256,8.4,22.038,22.038,0,0,0,4.174,2.93,18.52,18.52,0,0,0,2.753,2.011,28.138,28.138,0,0,0,15.5,3.441,63.576,63.576,0,0,0,9.185-1.132l.453-.084q-1.461.568-2.924,1.12A33.1,33.1,0,0,1,326.78,450.811Zm12.387-9.722a.675.675,0,0,0-.647-.849,25.8,25.8,0,0,1-10.879-2.141,69.117,69.117,0,0,0,11.961-.691,22.818,22.818,0,0,0,11.879-5.941,28.706,28.706,0,0,0,7.3-11.03,26.693,26.693,0,0,0,.993-12.525c-1.25-8.993-7.494-16.837-15.639-20.713A26.614,26.614,0,0,0,334,384.67q-1.2-.613-2.4-1.205c-1.779-.875-3.571-1.722-5.366-2.563a7.739,7.739,0,0,1,2.5-.937,23.6,23.6,0,0,1,5.12-.5,36.337,36.337,0,0,1,10.162,1.239c4.14,1.187,7.244,4.545,9.713,7.917,3.21,4.384,6.084,9.1,7.564,14.358a41.489,41.489,0,0,1,1.572,15.514,42.873,42.873,0,0,1-1.635,7.884,26.362,26.362,0,0,1-2.345,5.956,52.905,52.905,0,0,1-3.457,5.021,31.132,31.132,0,0,1-3.524,4.148c-3.718,3.421-9.368,4.2-14.15,5.035-5.584.975-11.428,1.458-16.964-.055q-.517-.141-1.027-.306a30.082,30.082,0,0,0,10.989.224C334.171,445.843,337.75,444.529,339.167,441.089Zm-5.534-55.107a65.261,65.261,0,0,1,14.2,9.333,24.5,24.5,0,0,1,5.222,6.935c1.87,3.6,3.283,8.091,2.58,12.17-1.42,8.235-8.18,15.234-15.892,18.029a24.077,24.077,0,0,1-12.647.908,24.729,24.729,0,0,1-9.834-3.577c-5.948-4.162-8.994-11.692-9.515-18.721-.588-7.925,4.353-16.15,10.657-20.692A24.735,24.735,0,0,1,333.633,385.982Zm22.954,52.078.323-.43a45.657,45.657,0,0,0,3.466-5.167,30.883,30.883,0,0,0,2.448-6.717,40.164,40.164,0,0,0,1.258-16,41.773,41.773,0,0,0-5.5-16.253c-2.667-4.448-5.744-9.144-10.082-12.129-2.9-2-6.33-2.624-9.777-3a29.507,29.507,0,0,0-10.983.449,6.521,6.521,0,0,0-3.23,1.78.689.689,0,0,0,.138,1.07c2.12.992,4.263,1.989,6.392,3.028a27.1,27.1,0,0,0-8.907,2.077c-7.444,3.143-13.286,10.457-15.225,18.259a24.407,24.407,0,0,0,.7,12.772,26.643,26.643,0,0,0,5.3,9.822,18.6,18.6,0,0,0,7.165,5.164,32.252,32.252,0,0,0,13.254,2.388c8.62-.372,16.935-6.018,21.066-13.483a22.932,22.932,0,0,0,2.452-6.343,16.162,16.162,0,0,0,.006-6.145,26.978,26.978,0,0,0-4.808-11.184,32.407,32.407,0,0,0-7.723-7.224,74.388,74.388,0,0,0-7.123-4.423c.312.056.622.116.93.185a25.9,25.9,0,0,1,20.511,27.872,23.046,23.046,0,0,1-4.088,11.365,24.569,24.569,0,0,1-9.282,8.463c-4.2,2.05-8.988,2.4-13.592,2.486-2.272.041-4.545.012-6.818.046a.673.673,0,0,0-.337,1.244,27.157,27.157,0,0,0,12.914,3.552c-1.515,2.358-4.672,3.165-7.308,3.566a28.188,28.188,0,0,1-11.635-.647,27.811,27.811,0,0,1-5.938-2.283,23.521,23.521,0,0,1-3.288-3.722,50.129,50.129,0,0,1-9.821-27.34,32.573,32.573,0,0,1,7.967-22.4,29.688,29.688,0,0,1,5.129-4.78,34.346,34.346,0,0,1,6.444-3.467,35.84,35.84,0,0,1,11.732-3.4c8.91-.7,18.288,1.1,24.682,7.785,5.355,5.6,8.608,13.142,10.991,20.516l.49,1.716q.612,2.139,1.225,4.277c.116.405.2.858.341,1.276.029.187.06.336.08.221.033.082.067.163.106.24a.587.587,0,0,0,.425.334,55.545,55.545,0,0,0-2.65,7.81,39.6,39.6,0,0,1-6.044,12.381A42.567,42.567,0,0,1,356.587,438.06ZM378.6,418.74a27.468,27.468,0,0,0-2.559,1.514,2.515,2.515,0,0,0,.486-1.23c.23-2.95.208-6.666,2.338-9.007,1.357-1.491,1.7.937,1.832,1.961a15.352,15.352,0,0,1-.067,4.938.7.7,0,0,0,.5.846A10.167,10.167,0,0,0,378.6,418.74Zm-1.091,11.715c-.335-1.936.907-4.178,2.018-5.651a17.9,17.9,0,0,1,5.692-5.079,3.034,3.034,0,0,1,1.125,2.612c-.488.882-1.05,1.733-1.621,2.557a24.445,24.445,0,0,1-4.222,4.835C379.914,430.224,377.772,431.979,377.508,430.455Zm21.367,18.351c.01-.074.019-.148.029-.221.219-1.586.4-3.179.6-4.768-.032.882-.1,1.762-.21,2.635A20.229,20.229,0,0,1,398.875,448.806Zm-18.218-9.457c1.616.374,1.233,2.442.8,3.554a7.991,7.991,0,0,1-2.839,3.681,5.859,5.859,0,0,1-2.036,1.014c-.469.092-.64-.169-.685-.523.092-.5.251-1,.362-1.423a16.115,16.115,0,0,1,1.787-4.308C378.55,440.528,379.507,439.083,380.657,439.35Zm3.106-7.079a33.935,33.935,0,0,0-7.871,9.943,9.322,9.322,0,0,0-1.371,4.926,9.2,9.2,0,0,0-.107,1.12c-.027.988.67,1.3,1.5,1.546,4.132,1.2,7.669-1.165,10.72-3.686a47.056,47.056,0,0,1,5.046-3.929,10.153,10.153,0,0,1,6.835-1.333c-.3,1.9-.508,3.82-.75,5.731-.136,1.078-.275,2.157-.453,3.229a6.009,6.009,0,0,1-.38,1.588,2.546,2.546,0,0,1-1.627,1.224c-.769.263-1.557.483-2.356.672-.507.028-.994.043-1.428.067-2.707.149-5.4-.054-8.11-.127-3.774-.1-7.55-.129-11.322-.318a.6.6,0,0,0-.393.113c.426-2.774.8-5.555,1.1-8.34a.572.572,0,0,0-.164-.5c.525-1.259,1.079-2.507,1.673-3.738a68.437,68.437,0,0,0,6.449-7.172c.854-1.12,1.795-2.194,2.716-3.284a18.656,18.656,0,0,0,4.607-1.31c-.507.366-.986.774-1.469,1.167C385.643,430.64,384.69,431.44,383.763,432.27Zm16.229-8.883q1.029.087,2.051.242a36.806,36.806,0,0,1,3.935.808,12.386,12.386,0,0,1,6.119,3.22,22.474,22.474,0,0,1,2.419,3.149,31.588,31.588,0,0,0-4.538-2.452c-3.146-1.367-6.732-1.525-10.234-1.509a3,3,0,0,0,.115-1.18c-.019-.761-.126-1.528-.1-2.289C399.888,423.383,400.008,423.388,399.992,423.387Zm-5.779,1.589a5.166,5.166,0,0,1,1.634-1.179,8.2,8.2,0,0,1,2.319-.417,14.136,14.136,0,0,1,.16,3.264.593.593,0,0,0,.015.214c-.928.012-1.846.026-2.742.023a17.059,17.059,0,0,0-5.012.577c.584-.328,1.152-.676,1.7-1.038A19.517,19.517,0,0,0,394.213,424.976Zm2.463-15.414c-4.855.509-7.923,5.3-11,8.54a.717.717,0,0,0-.1.142.517.517,0,0,0-.139-.043l-.007,0a8.939,8.939,0,0,0-3.592-.545c-.044,0-.087.012-.131.016a.769.769,0,0,0,.207-.213,7.98,7.98,0,0,0,1.167-4.077c4.966-1.732,9.738-3.966,14.69-5.731a5.047,5.047,0,0,0,.132,1.824C397.491,409.493,397.082,409.519,396.677,409.562Zm32.071,12.46a.278.278,0,0,0,.012.031C428.706,421.928,428.715,421.948,428.747,422.021Zm-22.291-14.107c2.009.559,4.011,1.143,6.02,1.7a29.384,29.384,0,0,1,3.61,1.17c.292.124.579.26.864.4-.517-.14-1.045-.245-1.574-.352-1.879-.379-3.784-.634-5.69-.835-2.309-.244-4.629-.4-6.95-.475-1.073-.036-2.166-.082-3.257-.086.052-.768.036-1.539.077-2.308A16.163,16.163,0,0,1,406.456,407.915Zm-21.807-3.4c1.407,2.331-.037,4.887-1.694,6.761-.246-1.574-.886-3.267-2.389-3.986a8.9,8.9,0,0,0-.935-.379,26.375,26.375,0,0,0,2.648-2.523C383.2,403.814,384.114,403.625,384.649,404.512Zm-.9-8.842a43.417,43.417,0,0,0,7.078.365,39.779,39.779,0,0,0-7.364,5.348c-.661.56-1.273,1.185-1.883,1.815a10.665,10.665,0,0,0-3.1,2.839.753.753,0,0,0-.152.521,8.463,8.463,0,0,0-1.424-.162,4.718,4.718,0,0,0-3.092,1.2,15.688,15.688,0,0,0-3.68,3.926c-.11.17-.216.342-.319.515-.113-.424-.291-.857-.387-1.219-.089-.331-.182-.662-.273-.992a.654.654,0,0,0,.617.14c.852-.235.71-1.995.79-2.658a53.557,53.557,0,0,0-2.832-24.694,18.548,18.548,0,0,0,2.543,2,4.482,4.482,0,0,0,2.088,2.455,4.323,4.323,0,0,0,.539.216c.487.607.977,1.213,1.482,1.8a2.873,2.873,0,0,0,.175,1.515C376.031,394.244,380.285,395.2,383.754,395.67Zm5-7.84a6.475,6.475,0,0,1-3.345,2.063,13.537,13.537,0,0,1-4.089.364,8.265,8.265,0,0,1-4.5-.869,4.929,4.929,0,0,1-.851-.663l.008-.013c.482-.73,1.522-.779,2.29-.987A23.452,23.452,0,0,1,381.72,387c1.524-.176,3.027-.594,4.56-.7.193,0,.388-.009.583-.02C387.787,386.3,389.559,386.641,388.752,387.83Z" transform="translate(-236.715 -355.289)" fill="#abb3bf"/>
    </g>
  </g>
</svg>
