<?xml version="1.0" encoding="UTF-8"?><svg id="a" xmlns="http://www.w3.org/2000/svg" width="431.7926" height="92.7077" viewBox="0 0 431.7926 92.7077"><path d="M200.2589,85.1367c-1.0919.9014-2.5868,1.2343-4.2723,1.2343h-2.0173v6.052h-3.8452v-16.3773h5.8625c1.6855,0,3.1804.3329,4.2723,1.2343,1.0919.9024,1.7095,2.1597,1.7095,3.9164s-.6176,3.015-1.7095,3.9404ZM197.292,79.4637c-.4743-.3319-1.0207-.4512-1.8509-.4512h-1.496v4.3916h1.496c.8302,0,1.3766-.1193,1.8509-.4512.4512-.3319.7831-.9254.7831-1.7566,0-.8302-.3319-1.3997-.7831-1.7326Z" style="fill:#ff5100; stroke-width:0px;"/><path d="M229.3819,92.423h-3.8452v-6.8592h-6.5744v6.8592h-3.8452v-16.3773h3.8452v6.3378h6.5744v-6.3378h3.8452v16.3773Z" style="fill:#ff5100; stroke-width:0px;"/><path d="M251.5035,92.7077c-4.8659,0-8.687-3.1564-8.687-8.4494s3.8211-8.4734,8.687-8.4734,8.687,3.1804,8.687,8.4734-3.8221,8.4494-8.687,8.4494ZM251.5035,79.0606c-2.7302,0-4.7947,1.9702-4.7947,5.1025s2.0645,5.1266,4.7947,5.1266,4.7937-1.9933,4.7937-5.1266c0-3.1092-2.0645-5.1025-4.7937-5.1025Z" style="fill:#ff5100; stroke-width:0px;"/><path d="M283.451,79.0837h-4.2252v13.3393h-3.8452v-13.3393h-4.2242v-3.038h12.2945v3.038Z" style="fill:#ff5100; stroke-width:0px;"/><path d="M303.104,92.7077c-4.8659,0-8.687-3.1564-8.687-8.4494s3.8211-8.4734,8.687-8.4734,8.687,3.1804,8.687,8.4734-3.8221,8.4494-8.687,8.4494ZM303.104,79.0606c-2.7302,0-4.7947,1.9702-4.7947,5.1025s2.0645,5.1266,4.7947,5.1266,4.7937-1.9933,4.7937-5.1266c0-3.1092-2.0645-5.1025-4.7937-5.1025Z" style="fill:#ff5100; stroke-width:0px;"/><path d="M354.845,90.4768c-.8302.8543-2.5628,2.2309-5.9096,2.2309-4.8177,0-8.5917-3.1804-8.5917-8.4494,0-5.293,3.8211-8.4494,8.5917-8.4494,3.3699,0,5.1978,1.3997,5.6249,1.8509l-1.1861,3.1804c-.3088-.4031-2.0655-1.7085-4.2252-1.7085-2.7774,0-4.913,1.8509-4.913,5.0554s2.2309,5.0313,4.913,5.0313c2.0414,0,3.5133-.8071,4.4147-1.7326l1.2814,2.9909Z" style="fill:#ff5100; stroke-width:0px;"/><path d="M382.6165,92.423h-4.1781l-1.1631-3.2987h-5.8385l-1.1631,3.2987h-3.9876l6.1713-16.4004h3.9876l6.1713,16.4004ZM376.398,86.1333l-2.0414-5.8866-2.0414,5.8866h4.0828Z" style="fill:#ff5100; stroke-width:0px;"/><path d="M408.2493,92.423h-4.4618l-3.4421-6.2656h-1.2102v6.2656h-3.8452v-16.3773h5.8866c1.8278,0,3.2516.38,4.3194,1.1631,1.0919.8071,1.8038,2.1126,1.8038,3.7499,0,3.1102-1.9933,4.3204-3.2035,4.7004l4.153,6.7639ZM402.6003,79.4396c-.4743-.3559-1.0919-.4271-1.9702-.4271h-1.518v4.2011h1.518c.8783,0,1.496-.0942,1.9702-.4502.4983-.3569.8312-.8071.8312-1.6614,0-.8312-.3329-1.3055-.8312-1.6624Z" style="fill:#ff5100; stroke-width:0px;"/><path d="M431.7004,79.0837h-4.2252v13.3393h-3.8452v-13.3393h-4.2242v-3.038h12.2945v3.038Z" style="fill:#ff5100; stroke-width:0px;"/><path d="M190.3877,65.4205l-.6206-9.9985h.8272c2.8957,5.7231,5.7923,10.0666,11.2387,10.0666,3.5163,0,6.3438-1.8609,6.3438-5.2399s-2.3452-4.895-7.171-7.4467l-2.6891-1.4478c-2.9648-1.5852-7.7224-4.1369-7.7224-10.6863,0-7.1018,5.654-11.1696,12.7558-11.1696,2.7583,0,7.0326.6206,9.8591,1.7236v8.3421h-.8272c-2.275-4.9641-5.2399-8.2729-9.6525-8.2729-3.4471,0-5.4464,1.9993-5.4464,4.6884,0,3.792,3.2406,5.4464,5.3772,6.5493l2.6891,1.4478c4.6884,2.4826,9.5844,4.7576,9.5844,11.4453,0,7.3093-5.7923,11.8594-14.2728,11.8594-3.3779,0-7.6533-.6888-10.2732-1.8609Z" style="fill:#ff7e00; stroke-width:0px;"/><path d="M248.7893,57.2148c0,4.4127,1.1721,6.3438,3.5163,7.171v.8272l-11.1696,2.0685h-.5515l-1.2413-5.8605c-3.4471,3.3098-8.0663,5.8605-12.6866,5.8605-5.9979,0-9.0319-3.8612-9.0319-10.7555v-18.3405c0-4.4127-1.3105-6.0671-3.6547-6.8942v-.8282l12.7558-.8272h.5515v24.4076c0,4.7576.8964,7.7916,5.309,7.7916,1.9311,0,4.4127-.8272,6.5503-2.1377v-21.5119c0-4.4127-1.3105-6.0671-3.6547-6.8942v-.8282l12.7558-.8272h.5515v27.579Z" style="fill:#ff7e00; stroke-width:0px;"/><path d="M285.6107,58.8702c0,4.4127.2065,6.7569,3.033,6.7569v.8272h-15.7196v-.8272c2.8265,0,3.034-2.3442,3.034-6.7569v-16.1337c0-4.7576-.8282-7.7916-5.309-7.7916-1.9311,0-4.4819.8272-6.5503,2.2068v21.7185c0,4.4127.2065,6.7569,3.034,6.7569v.8272h-15.7206v-.8272c2.8265,0,3.034-2.3442,3.034-6.7569v-19.1677c0-4.4127-1.1721-5.654-3.5163-6.4812v-.8272l12.6174-2.7583h.5515v5.5848c3.4471-3.2406,7.9982-5.7221,12.5482-5.7221,5.9297,0,8.9637,3.8612,8.9637,10.7555v18.6163Z" style="fill:#ff7e00; stroke-width:0px;"/><path d="M288.716,65.4205l-.6206-9.9985h.8272c2.8957,5.7231,5.7923,10.0666,11.2387,10.0666,3.5163,0,6.3438-1.8609,6.3438-5.2399s-2.3452-4.895-7.171-7.4467l-2.6891-1.4478c-2.9648-1.5852-7.7224-4.1369-7.7224-10.6863,0-7.1018,5.654-11.1696,12.7558-11.1696,2.7583,0,7.0326.6206,9.8591,1.7236v8.3421h-.8272c-2.275-4.9641-5.2399-8.2729-9.6525-8.2729-3.4471,0-5.4464,1.9993-5.4464,4.6884,0,3.792,3.2406,5.4464,5.3772,6.5493l2.6891,1.4478c4.6884,2.4826,9.5844,4.7576,9.5844,11.4453,0,7.3093-5.7923,11.8594-14.2728,11.8594-3.3779,0-7.6533-.6888-10.2732-1.8609Z" style="fill:#ff7e00; stroke-width:0px;"/><path d="M347.0483,58.8702c0,4.4127.2075,6.7569,3.034,6.7569v.8272h-15.7206v-.8272c2.8275,0,3.034-2.3442,3.034-6.7569v-16.1337c0-4.7576-.8272-7.7916-5.309-7.7916-1.9301,0-4.4819.8272-6.5503,2.2068v21.7185c0,4.4127.2075,6.7569,3.034,6.7569v.8272h-15.7206v-.8272c2.8275,0,3.034-2.3442,3.034-6.7569V22.0518c0-4.4127-1.1721-5.654-3.5163-6.4812v-.8272l12.6174-2.2068h.5515v22.684c3.4481-3.2406,7.9982-5.7221,12.5492-5.7221,5.9297,0,8.9627,3.8612,8.9627,10.7555v18.6163Z" style="fill:#ff7e00; stroke-width:0px;"/><path d="M349.2582,66.4543v-.8272c2.8265,0,3.034-2.3442,3.034-6.7569v-19.1677c0-4.4127-1.1721-5.654-3.5163-6.4812v-.8272l12.6174-2.7583h.5515v29.2344c0,4.4127.2065,6.7569,3.034,6.7569v.8272h-15.7206ZM351.1883,19.4318c0-2.9648,2.4134-5.4474,5.5166-5.4474,2.9648,0,5.4464,2.4826,5.4464,5.4474,0,3.1022-2.4816,5.5156-5.4464,5.5156-3.1032,0-5.5166-2.4134-5.5166-5.5156Z" style="fill:#ff7e00; stroke-width:0px;"/><path d="M398.694,58.8702c0,4.4127.2065,6.7569,3.033,6.7569v.8272h-15.7196v-.8272c2.8265,0,3.034-2.3442,3.034-6.7569v-16.1337c0-4.7576-.8282-7.7916-5.309-7.7916-1.9311,0-4.4819.8272-6.5503,2.2068v21.7185c0,4.4127.2065,6.7569,3.034,6.7569v.8272h-15.7206v-.8272c2.8265,0,3.034-2.3442,3.034-6.7569v-19.1677c0-4.4127-1.1721-5.654-3.5163-6.4812v-.8272l12.6174-2.7583h.5515v5.5848c3.4471-3.2406,7.9982-5.7221,12.5482-5.7221,5.9297,0,8.9637,3.8612,8.9637,10.7555v18.6163Z" style="fill:#ff7e00; stroke-width:0px;"/><path d="M431.7926,57.7673c-2.8265,4.7566-7.1018,9.5142-14.8242,9.5142-10.3414,0-15.7196-8.4113-15.7196-18.2714,0-10.962,7.17-19.5116,17.375-19.5116,8.687,0,13.6511,5.9287,13.0997,15.1681h-20.6837c0,10.6873,3.1022,17.2366,10.5489,17.2366,3.9986,0,6.8942-2.4124,8.9627-4.895l1.2413.759ZM411.1079,42.5981h12.0659c.5515-7.3775-.4823-11.3069-4.8258-11.3069-4.7576,0-6.8952,5.1707-7.2402,11.3069Z" style="fill:#ff7e00; stroke-width:0px;"/><path d="M158.0261,28.4577l-10.7384,37.9966h-12.6655l-5.1216-21.4768-5.0654,21.4768h-12.6655l-10.7384-37.9966h12.9402l4.6814,21.2011,4.6804-21.2011h12.3908l4.6804,21.2011,4.6804-21.2011h12.9412Z" style="fill:#241f20; stroke-width:0px;"/><path d="M184.0219,51.5859c-2.7533,2.2028-6.4431,3.029-10.573,3.029h-4.0758v11.8393h-12.4449V28.4577h16.5207c4.1299,0,7.8197.8262,10.573,3.029,2.7533,2.2018,4.2954,5.5066,4.2954,10.0767,0,4.516-1.5421,7.8197-4.2954,10.0225ZM174.3844,38.5354c-.8262-.6066-1.6514-.7159-3.028-.7159h-2.0374v7.4337h2.0374c1.3766,0,2.2018-.1103,3.028-.6607.8813-.6056,1.3766-1.5421,1.3766-3.029,0-1.5421-.5505-2.4776-1.3766-3.028Z" style="fill:#241f20; stroke-width:0px;"/><path d="M19.9011,25.5483c.2351-.1238.4702-.2473.7189-.3578,1.8494-.7511,3.7409-1.3719,5.671-1.8518.3589-.2958.7174-.5926,1.0919-.8698,1.8118-1.2724,3.8091-2.2433,5.9056-2.9135-.8708.123-1.7406.2632-2.6069.4394-2.9328.6284-5.7643,1.6511-8.3626,3.0453-.8467.7949-1.6534,1.6327-2.4179,2.5081Z" style="fill:none; stroke-width:0px;"/><path d="M13.3543,26.8054c.5359-3.7265,1.5476-7.3093,3.4993-10.4898-.8127.7738-1.5947,1.5853-2.3362,2.4422-4.7726,5.7272-7.3324,13.3097-7.734,20.8751,1.0327-4.7943,3.3093-9.2253,6.5709-12.8276Z" style="fill:none; stroke-width:0px;"/><path d="M19.3833,74.2602c-1.4679-1.4382-2.635-3.0872-3.5704-4.8599-3.4792-3.2475-6.3042-7.2179-8.2228-11.6343-4.1791-9.8977-4.3716-20.9657-.5409-30.8923-2.6666,4.643-4.4192,9.7636-4.8198,15.223-.4121,6.3502.8247,12.7004,3.6286,18.4733,2.8044,5.7729,6.433,11.3809,11.2162,15.6693,3.7935,3.4637,8.4945,5.8554,13.5253,6.6801,3.9339.5076,7.9139.1277,11.6448-1.0845-2.1738.0341-4.3575-.0892-6.5318-.3999-5.9382-.8248-11.9581-2.969-16.3292-7.1749Z" style="fill:none; stroke-width:0px;"/><path d="M53.4434,5.8925c.6161.1822,1.2247.387,1.8293.6026.9039.1424,1.8073.298,2.7072.4803-5.7502-3.7316-12.4931-5.4126-19.6284-3.9694-2.7713.5963-5.4158,1.5813-7.9551,2.803,7.4938-2.1587,15.5105-2.1775,23.047.0835Z" style="fill:none; stroke-width:0px;"/><path d="M21.1153,20.8195c.0441-.0233.0897-.0426.1339-.0657,12.9117-11.6688,31.8002-12.6778,45.7766-3.3748-2.5768-3.0517-5.7883-5.5533-9.459-7.2806-1.0393-.489-2.1056-.9108-3.1844-1.2978-.8934-.1345-1.7857-.2563-2.6711-.3516-5.278-.6597-10.6387-.6597-15.9166-.0825-4.0412.4948-8.2468,1.4844-11.7105,3.7935-4.3134,2.8307-6.5373,7.0849-7.6893,11.7683,1.4508-1.1825,3.025-2.2322,4.7205-3.1089Z" style="fill:none; stroke-width:0px;"/><path d="M31.8362,77.7239c-2.1357-.4239-4.1996-1.0746-6.1768-1.9111,5.1316,2.8172,11.5095,3.8013,17.377,3.558-.013-.318.0762-.6341.2702-.8678-.6653-.0847-1.3265-.1812-1.9837-.2906-3.1594.2443-6.3463.0865-9.4866-.4885Z" style="fill:none; stroke-width:0px;"/><path d="M12.872,31.7185c.005-.0843.0125-.1682.0175-.2524-1.1325,1.7023-2.0705,3.5639-2.7428,5.6001-1.2593,3.6369-1.6449,7.5188-1.2759,11.3336.011-.1435.0211-.287.0351-.4299-.0597-.1466-.0892-.3173-.0792-.5125.0827-1.4846.1654-2.969.4126-4.4534.5936-3.9572,1.8389-7.7595,3.6326-11.2855Z" style="fill:none; stroke-width:0px;"/><path d="M79.2567,23.7059c-3.1819-6.2621-8.7792-10.1351-15.0995-12.468,3.4892,2.6099,6.436,5.9129,8.5015,9.829.2888.5657.556,1.1385.8086,1.7157.0055.0056.011.0107.016.0162,3.5464,3.8763,5.8555,8.6594,6.598,13.855,1.5666,10.7211-2.3918,21.7721-8.9893,30.184-1.6268,2.0918-3.4842,4.0555-5.5226,5.8136-1.132,1.181-2.3733,2.2501-3.6898,3.2184,2.4715-.4593,4.8849-1.1875,7.0682-2.3518,3.7108-1.9794,6.2676-5.5256,8.1646-9.1542,2.2264-4.3709,3.7108-9.0718,4.4533-13.8549.8247-4.8659,1.0718-9.814.742-14.7622-.1649-4.206-1.2368-8.2469-3.0511-12.0407Z" style="fill:none; stroke-width:0px;"/><path d="M70.9272,58.261c1.7316-5.5255,2.639-11.2159,2.8039-16.9888.1649-4.8658,0-9.7315-1.4022-14.3497-.3254-1.0097-.7104-1.9924-1.142-2.9496-4.539-4.8072-10.8497-8.1243-17.1664-9.586-2.1442-.4948-4.4533-.7422-6.6797-.8247-6.3187-.189-12.2965,1.3195-17.5063,4.0998,7.3119-1.6276,15.1501-1.0963,22.2068,1.1782,4.7837,1.5669,9.4019,3.7935,12.7006,7.7521,3.1338,3.7937,5.113,8.3294,5.9377,13.1953,1.7521,9.2383.0301,19.8515-5.9568,27.4024-.6833,1.3216-1.4704,2.5873-2.3728,3.7712-.9455,1.1176-1.9391,2.1864-2.9859,3.1911,1.5832-.9703,3.0877-2.0815,4.5019-3.3055,3.3148-3.5835,5.5392-8.0202,7.0612-12.5859Z" style="fill:none; stroke-width:0px;"/><path d="M73.5371,58.3919c3.8918-7.5202,5.7407-16.4329,3.41-24.6247-.3048-1.0423-.7009-2.0417-1.1465-3.0146.2,1.2387.3379,2.4911.4046,3.7568.3299,6.0204,0,12.0406-1.1546,17.8961-.3905,2.0092-.8959,4.0154-1.5135,5.9863Z" style="fill:none; stroke-width:0px;"/><path d="M67.2158,36.2415c.1915.4558.3549.9198.5249,1.3817-1.3711-5.1402-4.0332-9.8751-8.4418-12.9275-1.2914-.8697-2.6996-1.6007-4.164-2.2365.4587.2373.9124.4865,1.3601.752,4.9481,2.969,8.5767,7.7523,10.7209,13.0304Z" style="fill:none; stroke-width:0px;"/><path d="M78.7619,18.5104c-4.6608-6.1438-11.6709-9.4217-19.1031-11.1618.6698-.4266.938-1.5895.0521-2.1983C53.4434.6968,45.6087-.9526,38.0216.5318c-7.2577,1.4846-13.7724,5.5256-19.5452,9.9789C8.2498,18.5929.4151,30.2211.003,43.4988c-.0827,6.8451,1.5666,13.6075,4.7004,19.6279,3.0516,5.9377,6.9278,11.7107,12.2058,15.9991,4.2883,3.5463,9.4841,5.773,15.0097,6.3503,5.6078.4123,11.2157-.7422,16.1638-3.3813.7349-.3676,1.4549-.7559,2.1607-1.1625,1.4418-.3081,2.8686-.6853,4.2723-1.1468.6502-.2296,1.2884-.4878,1.9181-.7631,1.1225-.0738,2.2429-.1715,3.3599-.3089,4.3706-.5773,8.9893-1.6494,12.5352-4.3708,3.794-2.8865,6.3503-7.0101,8.1646-11.3809,2.062-5.0308,3.3814-10.3088,3.9585-15.6693,1.1546-9.7315.5775-20.7825-5.6901-28.782ZM38.3515,3.006c7.1354-1.4432,13.8782.2378,19.6284,3.9694-.8999-.1822-1.8033-.3379-2.7072-.4803-.6046-.2156-1.2132-.4204-1.8293-.6026-7.5364-2.261-15.5532-2.2422-23.047-.0835,2.5392-1.2217,5.1837-2.2067,7.9551-2.803ZM24.0842,12.1601c3.4637-2.3091,7.6693-3.2987,11.7105-3.7935,5.278-.5773,10.6387-.5773,15.9166.0825.8853.0953,1.7777.2171,2.6711.3516,1.0789.387,2.1452.8088,3.1844,1.2978,3.6707,1.7273,6.8822,4.2289,9.459,7.2806-13.9765-9.303-32.865-8.2939-45.7766,3.3748-.0441.0231-.0897.0424-.1339.0657-1.6955.8767-3.2697,1.9263-4.7205,3.1089,1.152-4.6834,3.3759-8.9375,7.6893-11.7683ZM22.319,23.0401c2.5984-1.3942,5.4299-2.4169,8.3626-3.0453.8663-.1762,1.7361-.3165,2.6069-.4394-2.0965.6701-4.0938,1.6411-5.9056,2.9135-.3745.2772-.7329.574-1.0919.8698-1.9301.4799-3.8216,1.1007-5.671,1.8518-.2487.1105-.4838.234-.7189.3578.7645-.8754,1.5712-1.7133,2.4179-2.5081ZM14.5174,18.7578c.7415-.8569,1.5235-1.6684,2.3362-2.4422-1.9517,3.1804-2.9633,6.7633-3.4993,10.4898-3.2616,3.6023-5.5382,8.0333-6.5709,12.8276.4016-7.5654,2.9613-15.148,7.734-20.8751ZM8.906,47.9699c-.014.1429-.0241.2864-.0351.4299-.369-3.8148.0165-7.6967,1.2759-11.3336.6723-2.0361,1.6103-3.8978,2.7428-5.6001-.005.0842-.0125.1681-.0175.2524-1.7937,3.526-3.039,7.3283-3.6326,11.2855-.2472,1.4844-.3299,2.9689-.4126,4.4534-.01.1951.0196.3658.0792.5125ZM30.5994,82.9195c-5.0308-.8247-9.7318-3.2164-13.5253-6.6801-4.7832-4.2885-8.4118-9.8964-11.2162-15.6693-2.8039-5.7729-4.0407-12.1231-3.6286-18.4733.4006-5.4594,2.1532-10.58,4.8198-15.223-3.8306,9.9265-3.6381,20.9946.5409,30.8923,1.9186,4.4164,4.7436,8.3868,8.2228,11.6343.9355,1.7727,2.1026,3.4217,3.5704,4.8599,4.3711,4.2059,10.391,6.3501,16.3292,7.1749,2.1743.3107,4.358.434,6.5318.3999-3.7309,1.2122-7.7109,1.5921-11.6448,1.0845ZM43.0364,79.3708c-5.8675.2433-12.2454-.7408-17.377-3.558,1.9772.8365,4.0412,1.4872,6.1768,1.9111,3.1403.575,6.3272.7328,9.4866.4885.6572.1094,1.3185.2059,1.9837.2906-.194.2337-.2832.5498-.2702.8678ZM56.8942,73.2315c-.3108,5.1742-7.3942,7.0057-10.6165,3.9166-.0877.0041-.1758.0164-.2634.0195-9.4219.3395-21.8164-3.9229-28.8143-10.359-7.6491-7.0349-6.6-21.3764-3.9003-30.434,1.4607-4.9005,4.1075-9.8966,9.841-10.2899,1.3353-.0916,2.6315.1057,3.802.5402,4.9251-1.446,9.8788-1.726,15.0189-1.2149,3.7234-1.0648,7.564-1.1434,11.4021.5839.7385.3323,1.4537.7303,2.1568,1.1554,5.25-1.932,9.81,2.6134,8.1373,7.8108.1025.1475.2144.2919.3135.4402,3.8258,5.7238,4.9089,13.1654,2.3243,19.3243,1.3699,2.4228,1.5295,5.5004-.7455,7.6007-1.3452,1.242-2.554,2.0527-4.3666,2.436-.1093.0231-.2235.0374-.3361.0546-.0723.5402-.1634,1.0402-.2175,1.387-.3101,1.9915-.9553,3.679-2.1484,5.3042-.473.6443-1.0161,1.203-1.5873,1.7245ZM55.1349,22.4591c1.4644.6358,2.8726,1.3669,4.164,2.2365,4.4087,3.0523,7.0707,7.7872,8.4418,12.9275-.1699-.4618-.3334-.9258-.5249-1.3817-2.1442-5.2781-5.7728-10.0614-10.7209-13.0304-.4477-.2655-.9014-.5147-1.3601-.752ZM59.3641,74.1524c1.0468-1.0047,2.0404-2.0735,2.9859-3.1911.9024-1.1839,1.6895-2.4496,2.3728-3.7712,5.9868-7.5509,7.7089-18.1641,5.9568-27.4024-.8247-4.8659-2.8039-9.4016-5.9377-13.1953-3.2987-3.9586-7.917-6.1852-12.7006-7.7521-7.0567-2.2745-14.8949-2.8058-22.2068-1.1782,5.2098-2.7804,11.1876-4.2889,17.5063-4.0998,2.2264.0825,4.5355.3299,6.6797.8247,6.3167,1.4617,12.6274,4.7788,17.1664,9.586.4316.9572.8167,1.9399,1.142,2.9496,1.4022,4.6182,1.5671,9.484,1.4022,14.3497-.1649,5.7729-1.0723,11.4633-2.8039,16.9888-1.522,4.5657-3.7464,9.0024-7.0612,12.5859-1.4142,1.224-2.9187,2.3352-4.5019,3.3055ZM76.2051,34.5095c-.0667-1.2657-.2045-2.5182-.4046-3.7568.4457.9729.8417,1.9723,1.1465,3.0146,2.3307,8.1918.4818,17.1045-3.41,24.6247.6176-1.971,1.123-3.9772,1.5135-5.9863,1.1546-5.8555,1.4844-11.8757,1.1546-17.8961ZM81.5658,50.5088c-.7425,4.7832-2.2269,9.484-4.4533,13.8549-1.897,3.6286-4.4538,7.1749-8.1646,9.1542-2.1833,1.1643-4.5967,1.8925-7.0682,2.3518,1.3165-.9683,2.5578-2.0374,3.6898-3.2184,2.0384-1.7582,3.8958-3.7218,5.5226-5.8136,6.5975-8.4119,10.5559-19.4629,8.9893-30.184-.7425-5.1956-3.0516-9.9788-6.598-13.855-.005-.0055-.0105-.0105-.016-.0162-.2527-.5772-.5199-1.1499-.8086-1.7157-2.0655-3.9161-5.0123-7.2191-8.5015-9.829,6.3202,2.3329,11.9175,6.2059,15.0995,12.468,1.8143,3.7938,2.8861,7.8347,3.0511,12.0407.3299,4.9482.0827,9.8963-.742,14.7622Z" style="fill:#ffde20; stroke-width:0px;"/><path d="M60.8474,64.8158c.1126-.0172.2268-.0315.3361-.0546,1.8126-.3833,3.0214-1.194,4.3666-2.436,2.275-2.1004,2.1153-5.178.7455-7.6007,2.5847-6.1589,1.5015-13.6005-2.3243-19.3243-.0991-.1483-.2111-.2928-.3135-.4402,1.6727-5.1974-2.8873-9.7428-8.1373-7.8108-.7031-.4251-1.4183-.8231-2.1568-1.1554-3.8382-1.7273-7.6788-1.6487-11.4021-.5839-5.1401-.5111-10.0938-.2311-15.0189,1.2149-1.1705-.4345-2.4667-.6317-3.802-.5402-5.7335.3933-8.3803,5.3893-9.841,10.2899-2.6998,9.0577-3.7488,23.3991,3.9003,30.434,6.998,6.4361,19.3924,10.6986,28.8143,10.359.0877-.0031.1757-.0154.2634-.0195,3.2223,3.0891,10.3058,1.2576,10.6165-3.9166.5711-.5215,1.1143-1.0802,1.5873-1.7245,1.1932-1.6252,1.8383-3.3128,2.1484-5.3042.054-.3468.1451-.8468.2175-1.387Z" style="fill:#ffde1d; stroke-width:0px;"/><path d="M70.419,41.4578c-.4293-5.0882-.8579-10.21-4.2115-14.3294-2.0891-2.5662-4.9841-5.0575-8.1335-6.6661-9.04-6.0056-22.9467-2.891-32.6771,4.2322-6.5253,2.3131-10.7404,8.9413-11.6543,15.7178-.2371,1.5328-.2948,3.0222-.1925,4.4618-1.1475,23.3013,33.4721,41.4499,50.5824,21.8453,2.2815-3.7324,3.6797-7.3535,4.3315-10.808,2.5988-4.8313,3.0602-9.8221,1.9551-14.4536Z" style="fill:#ff7e00; stroke-width:0px;"/></svg>