<?xml version="1.0" encoding="utf-8"?>
<!-- Generator: Adobe Illustrator 27.2.0, SVG Export Plug-In . SVG Version: 6.00 Build 0)  -->
<svg version="1.1" id="Layer_1" xmlns="http://www.w3.org/2000/svg" xmlns:xlink="http://www.w3.org/1999/xlink" x="0px" y="0px"
	 viewBox="0 0 50.5 50.9" style="enable-background:new 0 0 50.5 50.9;" xml:space="preserve">
<style type="text/css">
	.st0{fill:#FFDE52;}
	.st1{fill:#FF8500;}
</style>
<path class="st0" d="M46.7,10.9c-2.8-3.7-6.9-5.6-11.4-6.6c0.4-0.2,0.5-0.7,0.2-1.1c-0.1-0.1-0.1-0.2-0.2-0.2
	C31.6,0.3,27-0.7,22.5,0.2c-4.3,0.9-8.2,3.3-11.6,5.9c-6.1,4.8-10.7,11.7-11,19.6c0,4.1,0.9,8.1,2.8,11.7c1.7,3.6,4.2,6.9,7.3,9.5
	c2.5,2.1,5.6,3.4,8.9,3.8c3.3,0.3,6.7-0.4,9.6-2c0.4-0.2,0.9-0.4,1.3-0.7c0.9-0.2,1.7-0.4,2.5-0.7c0.4-0.1,0.8-0.3,1.1-0.5
	c0.7,0,1.3-0.1,2-0.2c2.7-0.2,5.2-1.1,7.5-2.6c2.2-1.8,3.9-4.1,4.9-6.8c1.2-3,2-6.1,2.4-9.3C50.8,22.2,50.4,15.6,46.7,10.9z
	 M22.8,2.1c4-0.8,8.2,0,11.7,2.4c-0.5-0.1-1.1-0.2-1.6-0.3c-0.4-0.1-0.7-0.2-1.1-0.4c-4.5-1.3-9.2-1.3-13.7,0
	C19.5,3,21.1,2.5,22.8,2.1z M14.3,7.5L14.3,7.5c2.1-1.3,4.5-2.1,7-2.3c3.1-0.4,6.3-0.3,9.5,0c0.5,0.1,1.1,0.1,1.6,0.2
	c0.6,0.2,1.3,0.5,1.9,0.8c2.2,1,4.1,2.5,5.6,4.3c-8.5-5.6-19.7-4.8-27.2,2c0,0-0.1,0-0.1,0c-1,0.5-1.9,1.1-2.8,1.8
	C10.3,11.7,11.9,9.2,14.3,7.5z M13.2,14c1.6-0.8,3.2-1.4,5-1.8c0.5-0.1,1-0.2,1.5-0.3c-1.3,0.4-2.4,1-3.5,1.7
	c-0.2,0.2-0.4,0.3-0.6,0.5c-1.1,0.3-2.3,0.7-3.4,1.1c-0.1,0.1-0.3,0.1-0.4,0.2C12.2,15,12.7,14.5,13.2,14L13.2,14z M8.6,11.5
	c0.4-0.5,0.9-1,1.4-1.5c-1.1,1.9-1.8,4-2.1,6.2C6,18.4,4.6,21,4,23.9C4.2,19.3,5.8,15,8.6,11.5L8.6,11.5z M5.3,28.8
	c0,0.1,0,0.2,0,0.3c-0.2-2.3,0-4.6,0.8-6.7C6.4,21.2,6.9,20,7.6,19c0,0.1,0,0.1,0,0.2c-1.1,2.1-1.8,4.4-2.2,6.7
	c-0.1,0.9-0.2,1.8-0.2,2.6C5.2,28.6,5.2,28.7,5.3,28.8z M18.2,49.6L18.2,49.6c-3-0.5-5.8-1.9-8-4c-2.8-2.6-5.1-5.8-6.7-9.3
	c-1.7-3.4-2.4-7.2-2.2-11c0.3-3.2,1.2-6.3,2.9-9C1.9,22.2,2,28.8,4.5,34.6c1.1,2.6,2.8,5,4.9,6.9c0.6,1.1,1.3,2,2.1,2.9
	c2.7,2.4,6.1,3.9,9.7,4.3c1.3,0.2,2.6,0.3,3.9,0.2C22.8,49.7,20.5,49.9,18.2,49.6z M25.6,47.5c-3.6,0.2-7.1-0.5-10.3-2.1
	c1.2,0.5,2.4,0.9,3.7,1.1c1.9,0.3,3.8,0.4,5.6,0.3c0.4,0.1,0.8,0.1,1.2,0.2C25.6,47.1,25.5,47.3,25.6,47.5L25.6,47.5z M35.3,44.4
	L35.3,44.4c0.6-0.6,1.2-1.2,1.8-1.9c0.5-0.7,1-1.5,1.4-2.2C42,35.8,43,29.4,42,23.9c-0.5-2.9-1.7-5.6-3.5-7.8
	c-2-2.2-4.6-3.8-7.5-4.6c-4.3-1.4-8.8-1.6-13.2-0.7c3.2-1.7,6.8-2.5,10.4-2.4c1.3,0,2.7,0.2,4,0.5c3.9,0.9,7.4,2.9,10.2,5.7
	c0.3,0.6,0.5,1.2,0.7,1.8c0.7,2.8,1,5.7,0.8,8.5c-0.1,3.4-0.6,6.8-1.7,10.1C41.3,38.9,38.8,42.4,35.3,44.4z M45.3,20.8
	c0-0.7-0.1-1.5-0.2-2.2c0.3,0.6,0.5,1.2,0.7,1.8c1.4,4.9,0.3,10.2-2,14.6c0.4-1.2,0.7-2.4,0.9-3.6C45.2,27.9,45.5,24.4,45.3,20.8z
	 M48.4,30.3L48.4,30.3c-0.4,2.9-1.3,5.7-2.6,8.2c-1,2.3-2.7,4.2-4.9,5.4c-1.3,0.7-2.7,1.2-4.2,1.4c0.8-0.6,1.5-1.2,2.2-1.9
	c1.2-1,2.3-2.2,3.3-3.5c3.9-5,6.3-11.6,5.3-17.9c-0.4-3.1-1.8-5.9-3.9-8.2l0,0c-0.2-0.3-0.3-0.7-0.5-1c-1.2-2.3-3-4.3-5.1-5.8
	c3.8,1.2,7,3.9,9,7.4c1.1,2.2,1.7,4.7,1.8,7.2C49.1,24.5,48.9,27.4,48.4,30.3z"/>
<path id="Path_1703_00000104696591891070448840000008527334799214371740_" class="st1" d="M41.8,24.9c-0.3-3-0.5-6.1-2.5-8.5
	c-1.3-1.6-3-3-4.8-4c-5.4-3.6-13.6-1.7-19.4,2.5c-3.9,1.4-6.4,5.3-6.9,9.3C8,25.2,8,26.1,8,27C7.3,40.8,27.9,51.6,38.1,40
	c1.2-2,2.1-4.1,2.6-6.4C42.1,30.9,42.5,27.8,41.8,24.9z"/>
</svg>
